<svg xmlns="http://www.w3.org/2000/svg" width="100" height="75" viewBox="0 0 100 75">
  <g id="wolke">
    <path id="body" d="M44.247,65.629c-.031-.01-.061-.019-.092-.029-5.543-1.647-10.753-5.315-13.249-10.644-.49-1.073-.709-2.264-.708-3.42,0-.142.004-.284.01-.424-.064-.045-.119-.066-.165-.066-.187,0-.245.329-.245.729,0,.274.028.581.06.838-.189.091-.428.331-.581.383-.486.284-1.033.439-1.58.56-.013.002-.026.005-.04.007-.018.003-.036.007-.054.01-.008.001-.015.003-.023.004-.018.003-.036.006-.054.01-1.365.24-2.759.365-4.149.366h-.01c-5.079-.002-10.126-1.674-13.631-5.527-.024-.026-.048-.052-.072-.079-.664-.702-1.265-1.522-1.771-2.415.589.187,1.238.346,1.433.416.928.246,1.873.416,2.825.535-.124.125-.24.259-.319.31-.265.244-.541.478-.82.706-.107.129-.451.252-.45.452,0,.034.01.07.032.108.035.045.08.064.133.064h.001c.315,0,.891-.696,1.115-.824.247-.258.595-.472.799-.76.68.073,1.363.121,2.045.155h.068c.77,0,1.543-.009,2.316-.029-.649.618-1.306,1.244-1.973,1.848-.586.54-1.174,1.077-1.774,1.602-.041.036-.061.087-.061.139,0,.048.017.097.051.134.017.03.045.043.081.043h0c.391,0,1.784-1.546,2.147-1.809.002,0,.003-.002.004-.003.004-.003.008-.006.012-.008.003-.002.006-.004.01-.006.45-.417.905-.83,1.35-1.254.148-.198.473-.344.476-.608-.006-.033-.021-.061-.042-.084,1.842-.054,3.688-.171,5.523-.376-.033.037-.064.074-.091.104-1.379,1.392-2.901,2.62-4.433,3.841-.624.495-1.251.986-1.897,1.452-.052.038-.08.097-.08.158,0,.039.011.078.035.111.023.044.061.064.112.064h.001c.346,0,1.246-.905,1.494-1.031,1.506-1.179,2.997-2.382,4.396-3.689.167-.213.914-.748.915-1.035,0-.009,0-.018-.002-.027,1.854-.222,3.694-.537,5.505-.97-.031.033-.053.076-.058.122-.918,1.065-1.982,1.996-3.006,2.957-.616.563-1.236,1.122-1.861,1.675-.597.529-1.198,1.056-1.814,1.562-.004.003-.008.007-.012.01-.002.002-.005.005-.007.007-.099.111-.015.309.135.316.002,0,.005,0,.007,0h.003c1.943-1.445,3.707-3.219,5.498-4.872.194-.262,1.451-1.243,1.449-1.675,0-.059-.024-.107-.076-.142-.009-.006-.019-.011-.029-.016,1.437-.353,2.856-.781,4.247-1.298.736-.268,1.465-.555,2.205-.811-1.545,1.66-3.239,3.191-4.974,4.65-.663.554-1.329,1.103-1.999,1.648-.147.194-1.154.766-1.152,1.058,0,.029.01.055.032.078,0,.001.001.002.002.004,0,0,0,.002.001.002.023.043.059.062.106.062h0c.311,0,1.074-.816,1.333-.975.005-.003.009-.006.014-.008.003-.002.006-.003.009-.005,1.952-1.585,3.886-3.198,5.663-4.981.431-.431.87-.854,1.293-1.293.12-.15.317-.29.38-.476.165-.041.355-.084.482-.155.152.094.276.171.345.22.917.514,1.858.989,2.816,1.428-1.974,1.942-4.263,3.527-6.436,5.234-.212.25-1.99,1.325-1.99,1.659,0,.026.011.047.034.064,0,0,.001.002.002.002.037.045.082.064.134.065h.001c.024,0,.048-.004.074-.011.006-.002.012-.004.019-.006.261-.087.616-.484.821-.606.003-.002.005-.003.008-.005.01-.005.019-.01.028-.014,1.308-.997,2.613-1.997,3.915-3.003,1.276-1.028,2.642-2.003,3.746-3.217,1.232.549,2.492,1.038,3.77,1.468-.003,0-.006,0-.01,0h-.003c-.011,0-.021.001-.033.004-.004,0-.008.002-.012.003-.291.182-.5.488-.76.715-2.091,2.031-4.319,3.917-6.548,5.794-1.249,1.053-2.503,2.101-3.739,3.171-.041.036-.061.087-.061.139,0,.048.017.097.051.134.017.033.045.048.083.048h0c.35,0,1.505-1.251,1.793-1.408,2.556-2.16,5.138-4.29,7.598-6.561.606-.548,1.177-1.133,1.762-1.703.043-.038.061-.086.061-.133,0-.068-.037-.135-.093-.172.945.316,1.901.6,2.861.854.611.144,1.226.272,1.844.384-2.794,3.159-6.232,5.712-9.398,8.491-1.243,1.047-2.49,2.092-3.75,3.12-.082.054-.187.147-.187.252,0,.033.011.068.036.103.004.005.008.01.012.014.041.046.084.065.128.066.002,0,.003,0,.005,0,.006,0,.011,0,.017,0,.079-.008.159-.07.232-.132.029-.024.056-.049.082-.07.003-.003.007-.005.01-.008,0,0,.002-.001.002-.002.628-.511,1.25-1.029,1.872-1.548,2.574-2.161,5.158-4.311,7.665-6.549.202-.226,3.573-3.019,3.571-3.638,0-.017-.003-.033-.008-.047,1.621.282,3.262.462,4.904.576-2.732,3.343-5.79,6.428-8.796,9.529-1.162,1.174-2.323,2.348-3.483,3.523-.171.269-1.763,1.576-1.764,1.933,0,.033.013.058.042.073.001.001.003.003.004.004,0,0,.001.001.002.002.001.001.002.002.004.003,0,0,0,0,0,0,.002.001.003.003.005.004,0,0,.001.001.002.002,0,0,0,0,.001.001.036.031.073.044.109.045h.002s.005,0,.007,0c.097-.004.191-.097.26-.177.002-.002.004-.004.006-.007.002-.002.003-.004.005-.006.564-.572,1.129-1.144,1.694-1.716,2.503-2.533,5.018-5.052,7.457-7.648,1.641-1.778,3.313-3.538,4.835-5.419.039-.038.066-.077.082-.116.438.027.875.05,1.313.068,1.295-.015,2.635-.044,3.976-.144-2.622,4.37-5.987,8.262-9.302,12.118-1.08,1.224-2.155,2.452-3.258,3.655-.031.033-.045.076-.044.119,0,.057.025.115.069.152.008.012.018.02.029.026,0,0,0,0,0,0,.011.005.024.008.038.008.365,0,1.694-1.802,2.043-2.111,0,0,.002-.002.003-.003.001,0,.002-.002.003-.003.005-.004.01-.009.015-.012,1.105-1.25,2.212-2.498,3.287-3.774,2.613-3.136,5.227-6.312,7.358-9.801.05-.115.129-.218.17-.335.001-.011.002-.022.002-.033,0-.014-.001-.027-.004-.04,1.33-.114,2.657-.303,3.936-.623-.097.085-.112.251-.181.361-2.32,4.914-5.587,9.285-8.74,13.687-.973,1.316-1.94,2.638-2.951,3.925-.028.036-.043.079-.043.123,0,.055.022.11.068.149,0,0,.002.002.002.002.025.025.053.036.084.036h0c.304,0,.889-1.051,1.129-1.299.002-.002.004-.004.005-.005t0,0c.006-.006.011-.011.016-.016.991-1.318,1.976-2.642,2.94-3.979,2.862-4.057,5.829-8.093,7.91-12.624.043-.061.067-.136.067-.206,0-.095-.044-.178-.143-.196,1.79-.465,3.483-1.191,4.96-2.332.008.004.017.009.026.013-.257.47-.554.916-.877,1.347-.091.217-.81.916-.811,1.223,0,.047.017.085.055.11.005.004.01.008.015.011.031.021.069.032.107.033.001,0,.003,0,.004,0,.002,0,.004,0,.005,0,.052-.001.104-.022.137-.064.001-.001.002-.003.003-.004.29-.389.572-.774.858-1.167.089-.123.663-.89.88-1.381.591.108,1.503.113,1.745.167.255.018.511.033.766.046-.529,1.109-1.266,2.113-1.963,3.123-.087.213-.657.7-.655.981,0,.047.017.089.056.122,0,0,.001.002.002.003.02.026.044.039.074.039h0c.368,0,1.452-1.889,1.668-2.129.099-.163,1.16-1.668,1.173-2.121.591.025,1.182.04,1.772.053.085.002.169.003.254.004l.178.002c.137.001.273.002.41.002h.011c.375,0,.751-.004,1.126-.013-.063.125-.095.286-.169.389-.425.873-.946,1.695-1.468,2.512-.109.297-1.296,1.78-1.299,2.187,0,.054.02.089.067.1.029.015.058.021.086.021.09,0,.173-.069.251-.169h0c.127-.163.239-.409.34-.574.033-.054.065-.099.096-.13.76-1.211,1.579-2.391,2.221-3.673.098-.213.221-.423.286-.647,0-.002,0-.003,0-.005,0-.007,0-.015-.001-.022,1.249-.038,2.496-.119,3.741-.236-.074.029-.134.097-.134.178,0,.022.004.044.014.068-.586,1.443-1.43,2.771-2.222,4.11-.417.682-.843,1.359-1.283,2.026-.02.03-.029.064-.03.099,0,.065.032.131.09.167,0,0,.001.001.002.002.016.017.036.025.058.025h0c.359,0,1.409-2.094,1.67-2.416.002-.002.004-.004.005-.006.001-.001.002-.002.003-.003.623-1.047,1.248-2.096,1.776-3.196.079-.245.318-.537.319-.806,0-.067-.014-.133-.05-.196-.028-.034-.064-.054-.101-.062,1.346-.129,2.69-.299,4.032-.499.229-.043.459-.087.689-.133-.003.017-.004.034-.004.052,0,.014,0,.027.002.041-.743,1.778-1.874,3.382-2.9,5.008-.438.676-.877,1.353-1.328,2.021-.02.03-.03.064-.03.099,0,.066.033.131.09.167.004.002.007.004.011.005.025.011.049.016.073.016h0s.004,0,.007,0c.226-.009.43-.46.597-.733.028-.045.054-.085.08-.117.003-.003.005-.007.008-.01.002-.002.003-.004.005-.006l.003-.003s.008-.009.012-.014c.003-.003.006-.006.009-.009,0,0,.002-.001.002-.002,1.118-1.72,2.266-3.423,3.234-5.234.144-.361.511-.803.512-1.212,0-.048-.005-.096-.016-.143h0c1.239-.258,2.489-.574,3.687-1.009-.046.1-.094.2-.144.299h0c-.135.266-.283.526-.437.782,0,0,0,0,0,.001-.272.454-.561.899-.826,1.354-.418.68-.857,1.347-1.317,1.999-.021.029-.03.064-.03.098,0,.014.001.027.004.041l-.022.033c.007-.011.015-.022.023-.033.011.052.041.099.086.127.016.021.036.03.059.03.369,0,1.651-2.385,1.877-2.67.318-.537.659-1.062.945-1.617.063-.172.22-.347.221-.533,0-.024-.002-.048-.008-.073,1.188-.465,2.314-1.056,3.314-1.833,0-.002.002-.005.003-.007.044-.126-.062-.238-.176-.248-.006,0-.011,0-.017,0-.042,0-.085.015-.12.048-.388.281-.804.551-1.24.793-3.341,1.766-7.099,2.388-10.828,2.718-.037.004-.074.008-.111.012-1.818.188-3.644.282-5.471.282h-.011c-.743,0-1.486-.016-2.228-.046-.084-.004-.168-.007-.251-.011-.984-.04-1.955-.103-2.929-.25-.012-.005-.026-.009-.043-.01-.003,0-.005,0-.008,0-.003,0-.006,0-.009,0h-.001c.121-.102.241-.207.359-.316.049-.046.075-.111.075-.174,0-.079-.041-.154-.125-.184-.019-.007-.04-.01-.06-.01h-.001s-.009,0-.014,0c-.07.005-.138.047-.165.114-.14.161-.317.284-.481.419-.757.603-1.587,1.111-2.467,1.513-1.914.91-4.022,1.262-6.116,1.474-.042.005-.084.01-.125.015,0,0,0,0-.001,0-.005,0-.009.001-.014.002-.018.002-.036.004-.054.006-1.282.15-2.571.223-3.86.223h-.011c-1.385,0-2.769-.084-4.147-.242-.041-.005-.083-.01-.124-.014-2.403-.246-4.788-.623-7.098-1.381-2.733-.877-5.416-1.951-7.916-3.369-.588-.344-1.168-.752-1.707-1.204-.001-.001-.002-.002-.004-.003-.036-.029-.08-.045-.124-.046h-.004s-.006,0-.01,0c-.045.002-.089.02-.123.054-.002.002-.005.005-.007.008-.026.026-.038.057-.038.09,0,.229.544.619,1.049.944-.713.194-1.875.7-2.13.761-4.782,1.943-9.911,2.7-15.036,3.008-.032.002-.064.005-.096.007-.004,0-.007,0-.011,0-.04.003-.08.006-.12.009-.014,0-.028.002-.043.003-.012,0-.023.002-.035.003-.955.066-1.914.105-2.872.106h-.01c-1.828,0-3.655-.143-5.453-.506-.022-.004-.043-.009-.065-.013-.949-.2-1.872-.462-2.783-.798-.843-1.657-1.357-3.521-1.356-5.328.001-2.032.653-3.99,2.22-5.499,1.713-1.704,4.021-2.825,6.443-2.827h.007c.235,0,.472.011.709.032.016.002.032.003.048.005.003,0,.005,0,.008,0,.007,0,.013,0,.02,0h.008c.144,0,.29.026.436.052.018.003.035.007.053.01.012.002.023.004.035.006.078.014.156.027.234.036.002,0,.005,0,.007,0,.039.004.078.007.117.009.002,0,.005,0,.007,0,.107.256.227.508.362.753.002.004.005.009.007.013.035.058.087.082.14.083h.003c.005,0,.011,0,.016,0,.119-.01.237-.131.185-.256,0,0,0,0,0-.001-.001-.003-.003-.006-.004-.009-.003-.005-.006-.011-.009-.017-.001-.002-.003-.004-.004-.007-.206-.375-.378-.767-.521-1.17-.215-.628-.365-1.277-.5-1.927-.297-1.511-.511-3.078-.512-4.634s.211-3.103.765-4.572c.011-.028.021-.055.033-.083.004-.011.009-.022.013-.033.006-.015.012-.03.018-.045,3.377-8.332,14.255-11.58,23.035-11.586h.027c1.021,0,2.015.044,2.963.129.026.002.053.005.079.007.02.002.04.004.061.006,4.118.32,8.1,1.726,11.522,4.036.342.234.683.48.966.784-.646.539-1.259,1.117-1.831,1.735-.126.21-1.033,1.038-1.032,1.427,0,.088.046.153.157.184h.004s.005.001.008.001c0,0,.001,0,.002,0,.003,0,.006,0,.01,0h.005c.09-.002.176-.07.188-.162,0-.001,0-.003,0-.004.243-.396.56-.741.859-1.094.605-.661,1.257-1.276,1.946-1.848.032-.004.062-.016.089-.038.013-.019.022-.039.029-.059,1.815-1.484,3.882-2.668,6.033-3.583.013-.006.026-.012.039-.018,2.58-1.144,5.914-2.024,9.08-2.026h.009c3.953.001,7.645,1.375,9.282,5.319h0c.009.023.019.046.028.069.013.032.026.064.039.097.411,1.153.565,2.335.566,3.524.001,1.767-.337,3.55-.674,5.283-.112.547-.242,1.112-.417,1.667-.032-.004-.064-.008-.095-.012l-.021-.003c-.032-.004-.064-.008-.095-.012-1.007-.122-2.023-.182-3.035-.182h-.011c-1.562,0-3.114.142-4.608.409-.048.009-.095.017-.143.026-.007.002-.014.004-.02.006-.199.067-.122.371.059.376h.006c.018,0,.038-.003.058-.01.708-.186,1.44-.254,2.168-.309.06-.004.121-.008.182-.011.72-.043,1.466-.061,2.193-.061h.012c.036,0,.073,0,.109,0,.037,0,.074,0,.111,0,.134-.002.268-.004.402-.004h.01c4.137.002,8.337,1.151,11.669,3.646,0,0,0,0,.001,0,.025.019.05.038.076.057.027.021.054.041.082.062,2.22,1.758,4.182,4.151,4.72,6.993.139.802.205,1.613.206,2.424.002,3.858-1.496,7.729-3.927,10.691-.065.075-.131.15-.197.225-3.085,3.445-7.758,5.409-12.387,5.411h-.007c-1.041,0-2.081-.099-3.099-.303-.016-.003-.032-.006-.048-.01-1.366-.267-2.7-.702-3.953-1.311-.212-.053-.762-.503-1.045-.591-.234-.596-.516-1.182-.841-1.755.007-.02.011-.039.011-.058,0-.087-.07-.166-.154-.19-.417-.704-.898-1.389-1.435-2.051-.001-.001-.002-.003-.004-.004-.001-.002-.003-.003-.004-.005-.038-.041-.089-.064-.142-.065h-.011c-.038.001-.077.014-.11.039-.048.037-.075.097-.075.156,0,.041.013.081.04.114.259.317.501.648.732.987.242.364.478.733.702,1.109-.282.557-.586,1.111-.896,1.655-.713,1.228-1.442,2.445-2.104,3.702-1.165,2.151-2.522,4.197-3.92,6.202-.942,1.337-1.879,2.679-2.802,4.029-.02.03-.03.064-.03.098,0,.066.033.132.09.168.001.001.002.002.004.004.017.018.037.026.059.026h0c.297,0,1.048-1.392,1.333-1.746.006-.008.013-.016.019-.023.008-.009.016-.018.023-.025.002-.002.004-.004.006-.006,1.942-2.783,3.939-5.542,5.551-8.535.903-1.752,2.003-3.399,2.894-5.157.375.666.705,1.356.955,2.079.265.883.426,1.736.492,2.557-1.007,2.482-2.29,4.829-3.654,7.143-.424.675-.874,1.333-1.337,1.982-.021.029-.03.064-.03.098,0,.066.035.133.091.168.016.014.035.021.056.022h.007c-1.301.872-2.803,1.565-4.436,2.059-.02.006-.039.012-.059.018-2.162.665-4.398.959-6.642.959-3.104,0-6.222-.563-9.175-1.485Z" fill="currentColor" opacity=".45" stroke="#fff" stroke-width="0.5"/>
    <path id="detail" fill="#fff" opacity=".9" d="M52.989,67.498c-7.047-.266-14.514-2.544-19.368-7.886-1.688-1.841-3.202-3.991-3.681-6.485-.006-.028-.014-.066-.022-.112-1.741,1.357-4.946,1.248-7.052,1.306-5.348-.045-10.549-2.121-13.993-6.297-.578-.697-1.094-1.468-1.527-2.287-.346-.141-.576-.287-.509-.416.033-.094.144-.155.241-.12-1.279-2.7-1.664-5.849-.494-8.628.916-2.014,2.787-3.491,4.746-4.431,1.266-.583,2.656-.814,4.045-.752.36.011.719.044,1.074.102-.375-1.037-.571-2.14-.755-3.224-.472-2.929-.514-6.002.688-8.762,4.121-9.364,17.508-12.275,26.801-11.299,3.463.337,6.852,1.375,9.847,3.159.414.272,2.037,1.128,2.527,1.76,1.529-1.231,3.228-2.255,4.996-3.096,3.232-1.475,6.724-2.58,10.308-2.528,7.785.025,11.505,5.237,9.967,12.702-.203,1.263-.4,2.488-.77,3.699,4.8.707,9.328,2.88,12.13,6.965,3.471,4.818,1.8,11.833-1.383,16.383-3.165,4.408-8.71,6.81-14.071,6.716-2.089-.08-4.173-.529-6.1-1.345-.188-.095-.904-.379-1.376-.674.258.768.435,1.551.523,2.347.041.015.077.044.099.088.04.126-.003.256-.057.383.108,1.666-.181,3.382-.957,5.115-2.839,5.589-9.682,7.62-15.585,7.62-.097,0-.193,0-.29-.002ZM30.209,51.112c-.061,1.286.148,2.64.697,3.844,2.496,5.328,7.707,8.996,13.249,10.643,5.132,1.617,10.769,2.153,15.967.536,1.632-.494,3.135-1.187,4.436-2.059-.024,0-.045-.007-.063-.022-.085-.054-.121-.18-.06-.266.462-.649.913-1.307,1.337-1.982,1.364-2.314,2.647-4.661,3.654-7.143-.065-.82-.226-1.673-.492-2.557-.25-.724-.58-1.413-.955-2.079-.891,1.757-1.991,3.405-2.894,5.157-1.612,2.993-3.609,5.752-5.551,8.535-.255.246-1.197,2.051-1.444,1.769-.086-.054-.12-.179-.06-.266.923-1.35,1.86-2.691,2.802-4.029,1.398-2.005,2.755-4.051,3.92-6.202.661-1.257,1.39-2.474,2.104-3.702.31-.545.614-1.098.896-1.655-.224-.376-.46-.745-.702-1.109-.231-.338-.473-.669-.732-.987-.067-.081-.047-.208.035-.27.085-.066.204-.046.27.035.537.662,1.018,1.347,1.435,2.051.103.03.185.14.144.249.325.573.607,1.159.841,1.755.283.087.833.538,1.045.591,1.253.609,2.586,1.044,3.953,1.311,5.658,1.153,11.966-.934,15.738-5.323,2.942-3.585,4.518-8.503,3.721-13.115-.538-2.842-2.5-5.235-4.72-6.993-3.467-2.663-7.906-3.841-12.24-3.763-.86-.004-1.754.015-2.606.072-.728.055-1.46.123-2.168.309-.232.077-.35-.314-.103-.372,2.574-.475,5.327-.576,8.008-.226.175-.555.305-1.12.417-1.667.564-2.899,1.13-5.941.108-8.807-2.875-7.308-12.632-6.048-18.477-3.442-2.151.915-4.218,2.099-6.033,3.583-.007.021-.016.04-.029.059-.027.021-.057.034-.089.038-.689.571-1.34,1.187-1.946,1.848-.299.353-.616.699-.859,1.094-.011.104-.116.178-.217.165-.606-.17.72-1.353.875-1.611.573-.617,1.186-1.195,1.831-1.735-.283-.304-.624-.55-.966-.784-3.422-2.31-7.404-3.716-11.522-4.036-9.17-.863-22.525,2.12-26.229,11.606-1.109,2.938-.848,6.185-.253,9.206.135.65.285,1.298.5,1.927.143.403.315.795.521,1.17.136.204-.216.42-.333.195-.135-.245-.255-.496-.362-.753-.302-.009-.618-.121-.924-.114-2.696-.263-5.314.907-7.206,2.79-2.96,2.85-2.655,7.307-.864,10.827.911.336,1.834.597,2.783.798,2.864.588,5.803.611,8.704.392,5.125-.308,10.253-1.066,15.036-3.008.255-.061,1.417-.567,2.13-.761-.58-.373-1.211-.831-1.011-1.034.072-.08.192-.081.272-.013.539.452,1.119.86,1.707,1.204,2.5,1.418,5.183,2.492,7.916,3.369,3.124,1.025,3.9,1.054,7.098,1.381,2.768.329,5.567.353,8.336.011,2.095-.213,4.203-.564,6.116-1.474.88-.402,1.71-.911,2.467-1.513.164-.134.341-.258.481-.419.037-.091.15-.136.241-.105.153.055.161.255.05.358-.118.108-.238.213-.359.316.024,0,.044.004.061.011.973.147,1.945.21,2.929.25,2.693.124,5.392.047,8.073-.237,3.729-.33,7.487-.952,10.828-2.718.435-.242.852-.512,1.24-.793.137-.13.383.026.31.209-1,.777-2.126,1.368-3.314,1.833.006.025.008.049.008.073,0,.186-.158.361-.221.533-.286.556-.627,1.08-.945,1.617-.226.285-1.508,2.67-1.877,2.67-.024,0-.044-.01-.059-.03-.044-.028-.075-.075-.086-.127-.015.022-.03.044-.045.066.015-.022.03-.044.045-.066-.003-.013-.004-.027-.004-.041,0-.034.009-.069.03-.098.46-.652.899-1.319,1.317-1.999.265-.455.555-.9.826-1.354,0,0,0,0,0-.001.154-.257.302-.516.437-.782h0c.05-.099.098-.198.144-.299-1.198.435-2.448.751-3.687,1.008h0c.105.447-.335.952-.497,1.355-.967,1.811-2.116,3.515-3.234,5.234-.206.203-.487,1.038-.806.872-.087-.055-.119-.179-.06-.266.451-.668.89-1.344,1.328-2.021,1.026-1.626,2.157-3.23,2.9-5.008-.004-.031-.003-.062.002-.092-.23.046-.46.09-.689.133-1.342.2-2.685.37-4.032.499.037.008.073.027.101.062.178.318-.17.696-.269,1.002-.528,1.099-1.154,2.148-1.776,3.196-.263.305-1.454,2.705-1.738,2.399-.088-.055-.118-.178-.06-.266.44-.668.866-1.344,1.283-2.026.791-1.339,1.636-2.667,2.222-4.11-.045-.11.026-.209.12-.245-1.244.117-2.491.199-3.741.236,0,.007.001.015.001.022,0,.002,0,.003,0,.005-.065.225-.187.434-.286.647-.641,1.281-1.46,2.461-2.221,3.673-.031.031-.063.076-.096.13-.102.165-.214.411-.34.574h0c-.078.1-.161.169-.251.169-.028,0-.057-.007-.086-.021-.047-.011-.067-.046-.067-.1.003-.406,1.19-1.89,1.299-2.187.522-.818,1.043-1.639,1.468-2.512.074-.103.106-.264.169-.389-.659.015-1.318.017-1.978.005-.591-.013-1.182-.028-1.772-.053-.013.453-1.074,1.957-1.173,2.121-.235.26-1.487,2.456-1.745,2.088-.264-.23.498-.853.6-1.102.697-1.01,1.434-2.013,1.963-3.123-.256-.013-.511-.028-.766-.046-.242-.054-1.154-.059-1.745-.167-.217.491-.791,1.258-.88,1.381-.286.393-.568.778-.858,1.167-.063.084-.194.089-.272.025-.29-.19.651-1.082.756-1.333.323-.431.62-.877.877-1.347-.009-.004-.017-.009-.026-.013-1.476,1.141-3.169,1.867-4.96,2.332.171.032.178.257.075.402-2.081,4.531-5.048,8.566-7.91,12.624-.964,1.338-1.949,2.661-2.94,3.979-.248.222-.968,1.563-1.238,1.281-.082-.068-.09-.189-.025-.272,1.012-1.287,1.978-2.609,2.951-3.925,3.152-4.402,6.419-8.773,8.739-13.687.068-.11.083-.276.181-.361-1.279.32-2.605.509-3.936.623.002.013.004.026.004.04,0,.01,0,.021-.002.033-.041.117-.12.22-.17.335-2.131,3.489-4.745,6.665-7.358,9.801-1.075,1.276-2.182,2.524-3.287,3.774-.005.004-.01.008-.015.012-.001,0-.002.002-.003.003,0,0-.002.002-.003.003-.348.309-1.677,2.111-2.043,2.111-.014,0-.027-.003-.038-.008,0,0,0,0,0,0-.011-.006-.021-.014-.029-.026-.044-.037-.069-.095-.069-.152,0-.043.014-.086.044-.119,1.103-1.203,2.178-2.431,3.258-3.655,3.315-3.856,6.68-7.748,9.302-12.118-1.34.1-2.68.129-3.975.144-.437-.019-.875-.041-1.313-.068-.016.039-.042.079-.082.116-1.522,1.882-3.194,3.641-4.835,5.419-2.438,2.596-4.954,5.115-7.457,7.648-.565.571-1.129,1.144-1.694,1.716-.102.119-.261.279-.408.127-.344-.182,1.535-1.712,1.722-2.006,1.16-1.175,2.322-2.349,3.483-3.523,3.006-3.101,6.063-6.186,8.796-9.529-1.642-.114-3.283-.294-4.904-.576.202.507-3.355,3.452-3.563,3.685-2.507,2.238-5.092,4.389-7.665,6.549-.622.519-1.244,1.036-1.872,1.548-.138.11-.328.332-.487.132-.106-.144.043-.283.15-.354,1.26-1.028,2.506-2.072,3.75-3.12,3.166-2.779,6.604-5.332,9.398-8.491-.618-.112-1.233-.24-1.844-.384-.961-.254-1.916-.538-2.861-.854.097.064.136.214.032.306-.584.57-1.156,1.155-1.762,1.703-2.459,2.271-5.042,4.401-7.598,6.561-.318.175-1.705,1.694-1.876,1.36-.07-.075-.069-.204.01-.272,1.236-1.069,2.49-2.118,3.739-3.171,2.229-1.877,4.456-3.763,6.548-5.794.26-.227.469-.534.76-.715.02-.005.039-.007.057-.006-1.278-.43-2.539-.919-3.77-1.468-1.104,1.213-2.47,2.188-3.746,3.217-1.301,1.006-2.607,2.006-3.915,3.003-.263.122-.856.866-1.088.575-.321-.224,1.727-1.453,1.955-1.722,2.173-1.706,4.462-3.292,6.436-5.234-.958-.439-1.899-.914-2.816-1.428-.07-.049-.193-.126-.345-.22-.127.071-.318.114-.482.155-.063.186-.26.326-.38.476-.423.44-.862.862-1.293,1.293-1.777,1.783-3.711,3.395-5.663,4.981-.269.14-1.296,1.274-1.465.92-.241-.253.958-.923,1.12-1.135.67-.545,1.337-1.094,1.999-1.648,1.735-1.459,3.429-2.99,4.974-4.65-.74.256-1.469.543-2.205.811-1.392.517-2.81.945-4.247,1.298.01.004.02.009.029.016.437.296-1.152,1.52-1.373,1.818-1.791,1.653-3.555,3.427-5.498,4.872-.165.002-.256-.226-.126-.334.617-.506,1.217-1.032,1.814-1.562.624-.553,1.244-1.112,1.861-1.675,1.024-.961,2.088-1.891,3.006-2.957.005-.047.026-.089.058-.122-1.811.433-3.651.748-5.505.97.05.279-.74.842-.913,1.062-1.398,1.307-2.889,2.509-4.396,3.689-.284.145-1.426,1.314-1.607.967-.061-.086-.04-.207.045-.269.645-.467,1.273-.958,1.897-1.452,1.532-1.221,3.054-2.449,4.433-3.841.027-.03.057-.067.091-.104-1.835.205-3.681.322-5.523.376.021.023.036.051.042.084-.003.264-.328.41-.476.608-.444.424-.899.836-1.35,1.254-.346.219-2.049,2.137-2.255,1.784-.07-.075-.069-.203.01-.272.599-.525,1.188-1.062,1.774-1.602.667-.604,1.324-1.229,1.973-1.848-.796.021-1.591.03-2.383.029-.682-.033-1.365-.082-2.045-.155-.204.288-.552.502-.799.76-.262.15-1.003,1.073-1.249.759-.156-.267.292-.409.418-.56.279-.228.554-.462.82-.706.078-.052.195-.186.319-.31-.952-.119-1.897-.289-2.825-.535-.195-.07-.844-.229-1.433-.416.506.893,1.107,1.713,1.771,2.415,4.504,5.019,11.6,6.388,18.032,5.209.547-.12,1.094-.275,1.58-.56.153-.052.392-.292.581-.383-.079-.633-.13-1.567.185-1.567.047,0,.101.02.165.066ZM68.937,56.714c-.873,1.793-1.781,3.57-2.82,5.268-.195.223-.848,1.435-1.286,1.907,2.795-1.971,4.591-4.798,4.628-8.273-.167.369-.344.734-.522,1.098Z"/>
  </g>
</svg>