<?xml version="1.0" encoding="UTF-8"?>
<svg id="SCIM3_POI_Icons" data-name="SCIM3 POI Icons" xmlns="http://www.w3.org/2000/svg" width="48" height="48" viewBox="0 0 48 48">
  <g id="turm">
    <polygon id="fill" points="26.918 19.407 27.758 34.27 23.716 34.5 20.683 34.391 21.8 19.602 23.924 18.389 26.918 19.407" fill="#fff"/>
    <path id="stroke" d="M26.918,19.407l.84,14.863-4.042.23-3.033-.109,1.117-14.789,2.124-1.213,2.995,1.018ZM22.732,22.264l-.009.474M22.625,25.031l-.014.237M22.471,27.388l.013-.277M22.344,29.972l.004.178M24.958,20.043l.906.275M25.516,22.281l.007.335M25.515,24.886l.009.414M25.506,27.097l.007.316M25.818,32.321l.019,1.736M21.927,18.277l.046,1.183M23.688,34.145l.235-15.756-.005-1.085M26.675,18.149l.045,1.124M27.194,17.762l-3.352-1.246-2.412,1.456M22.252,17.085l.061-2.508M24.5,16.185l.038-2.685M20.667,33.07c-1.322.095-5.258.967-5.258.967M32.591,33.998s-2.658-1.066-4.867-1.283" fill="none" stroke="#000" stroke-linecap="round" stroke-linejoin="round"/>
  </g>
</svg>