<?xml version="1.0" encoding="UTF-8"?>
<svg id="kbc-s3-preview-iconset" xmlns="http://www.w3.org/2000/svg" width="48" height="48" viewBox="0 0 48 48">
  <g id="fernglas">
    <path id="fill" d="M18.373,20.005l-2.729,4.708s-1.9,2.469.708,4.437c2.208,1.667,4.312-.167,4.312-.167,0,0,.479-.479.854-1.062.183-.285.25-1.333.25-1.333l4.458.042s.479,4.083,4.688,2.958c.455-.122,1.832-1.169,2.062-2.375.271-1.417-.708-2.708-.708-2.708l-2.646-4.521s-.203-.311-.292-.396c-.095-.091-.438-.292-.438-.292l-.854-1s-.333-.125-.646-.104c-.142.009-.521.229-.521.229l-.229,1.083s-.243.272-.292.354c-.04.069-.062.25-.062.25l-.021,2.208-4.521.021.021-2.188-.083-.313-.271-.312-.438-1.167s-.042-.167-.562-.208c-.126-.01-.5.062-.5.062l-.208.188-.521.854-.458.312-.354.438Z" fill="#fff"/>
    <path id="stroke" d="M28.098,26.826c.148.767.916,1.363,1.683,1.101M18.581,27.927c-.767.261-1.534-.334-1.683-1.101M21.769,22.316v-2.103c0-.589-.756-1.066-1.688-1.066s-1.386.395-1.599.725l-3.195,5.474M21.769,26.612v-2.528M26.269,24.787v1.825M32.75,25.347l-3.195-5.474c-.213-.331-.666-.725-1.599-.725s-1.688.478-1.688,1.066v2.029M27.24,22.347h-6.41M23.719,24.479h2.55M15.019,26.612c0-1.767,1.511-3.199,3.375-3.199s3.375,1.432,3.375,3.199-1.511,3.199-3.375,3.199-3.375-1.432-3.375-3.199M26.269,26.612c0,1.767,1.511,3.199,3.375,3.199s3.375-1.432,3.375-3.199-1.511-3.199-3.375-3.199-3.375,1.432-3.375,3.199M28.908,19.329l-.77-.945c-.18-.264-1.188-.216-1.257.097l-.249,1.072M21.405,19.553l-.399-1.122c-.069-.314-1.077-.363-1.257-.097l-.62.995M21.789,26.607l4.478.018M27.41,23.433l-.136-1.066" fill="none" stroke="#000" stroke-linecap="round" stroke-linejoin="round"/>
  </g>
</svg>