<?xml version="1.0" encoding="UTF-8"?>
<svg id="SCIM3_POI_Icons" data-name="SCIM3 POI Icons" xmlns="http://www.w3.org/2000/svg" width="48" height="48" viewBox="0 0 48 48">
  <g id="martini">
    <path id="Fill" d="M18.258,18.403c0,.152.019.302.055.448.05.201.134.393.249.565l4.198,6.304c.531.798,1.578.993,2.338.434.16-.118.301-.265.412-.434l4.198-6.304c.117-.175.202-.369.251-.574.035-.142.051-.527-.256-.23-.511.496-1.869,1.162-5.477,1.184-3.708.022-5.119-.72-5.651-1.236-.282-.273-.317-.157-.317-.157Z" fill="#fff"/>
    <path id="Stroke" d="M19.635,32.455c0,1.679,9,1.679,9,0M24.135,26.473v4.653M26.963,16.605c-.839-.132-1.803-.207-2.829-.207-3.246,0-5.877.752-5.877,1.679M18.258,18.077c0,.927,2.631,1.679,5.877,1.679s5.877-.752,5.877-1.679c0-.438-.55-.812-1.511-1.111M18.258,18.077v.326c0,.363.106.716.304,1.013l4.198,6.304c.531.798,1.578.993,2.338.434.16-.118.301-.265.412-.434l4.198-6.304c.198-.296.304-.65.304-1.013v-.326M26.151,19.571l5.273-5.857" fill="none" stroke="#000" stroke-linecap="round" stroke-linejoin="round"/>
  </g>
</svg>