<?xml version="1.0" encoding="UTF-8"?>
<svg id="SCIM3_POI_Icons" data-name="SCIM3 POI Icons" xmlns="http://www.w3.org/2000/svg" width="48" height="48" viewBox="0 0 48 48">
  <g id="nixe">
    <path id="fill" d="M30.612,24.124s.053.589-.684.863c-.34.126-.882-.506-1.153-.2-.261.295-.829.721-1.371.406-.147-.085-.386-.538-.386-.538,0,0-.936,1.147-.778,1.95.108.549,1.083,1.964,1.335,2.518.176.388.053,2.968-2.338,2.251-1.879-.563-3.25-1.587-3.25-1.587-.031.014-.041.009-.031-.007.238-.389-.498-.919-.656-1.781-.211-1.147.625-2.094.625-2.094,0,0-1.641-.422-2.109.891-.207.58-.344,1.141-.344,1.141,0,0-.599-.12-1.828.125-1.243.248-2.359,2.266-2.359,2.266,0,0,2.182-.474,3.745-.474.888,0,2.521.146,2.521.146.087-.018.167-.036.155,0,0,0,1.839,2.358,2.532,2.844.829.58,1.244.87,1.844,1,1.483.321,2.772-.483,3-.625,3.257-2.032,2.889-8.566,1.531-9.094Z" fill="#fff"/>
    <path id="stroke" d="M28.112,17.603c.047-.005-.047.005,0,0M29.505,17.669c.062,0-.062,0,0,0M28.112,15.228c-.234.172-1.036.363-1.292,1.417-.153.628-.07,1.162,0,1.458M26.24,26.605c.108.549,1.083,1.964,1.335,2.518.176.388.053,2.968-2.338,2.251-1.879-.563-3.25-1.587-3.25-1.587-.146.066-.234.069-.282.212,0,0,1.839,2.358,2.532,2.844.829.58,1.244.87,1.844,1,1.483.321,2.772-.483,3-.625,3.257-2.032,2.889-8.566,1.531-9.094,0,0,.053.589-.684.863-.34.126-.882-.506-1.153-.2-.261.295-.829.721-1.371.406-.147-.085-.386-.538-.386-.538,0,0-.936,1.147-.778,1.95ZM21.924,25.905s-.836.947-.625,2.094c.158.863.894,1.393.656,1.781-.067.109-.19.174-.406.219,0,0-1.633-.146-2.521-.146-1.562,0-3.745.474-3.745.474,0,0,1.116-2.017,2.359-2.266,1.229-.245,1.828-.125,1.828-.125,0,0,.136-.56.344-1.141.469-1.312,2.109-.891,2.109-.891ZM27.383,19.311c-.283.013-.563.002-.99.344-.44.353-.602.835-.688,1.141-.643,2.297.378,5.032-.573,5.974-.206.204-.739.307-.74.307-.49.089-.617.03-.927.026M30.008,21.582c-.875.245-1.834.411-2.917.438M32.716,25.832c-.802-1.249-.988-1.212-1.229-1.979-.307-.974-1.352-1.709-.792-2.562.208-.318-.062-1.917-.771-2.042.217-.162.56-.545.646-.708.5-.948-.131-2.48-1.521-3.854M24.737,19.811c.708-.083.779-.665.854-1.146.136-.872-.462-1.543-.5-2.271-.03-.574.562-1.896,2.458-2.312M27.07,23.645c.201.444.208.688.042,1.042M29.237,21.749l-.125-.542" fill="none" stroke="#000" stroke-linecap="round" stroke-linejoin="round"/>
  </g>
</svg>