<?xml version="1.0" encoding="UTF-8"?>
<svg id="SCIM3_POI_Icons" data-name="SCIM3 POI Icons" xmlns="http://www.w3.org/2000/svg" width="48" height="48" viewBox="0 0 48 48">
  <g id="anker">
    <path id="fill" d="M23.937,14.531c-3.837-.137-4.668,5.678-1.003,6.684v.219c-.839.082-2.944-.428-2.892.989-.038,1.406,2.048.929,2.885,1.011l-.027,7.907c-1.378-.419-2.681-1.692-3.262-3.085.917.39,1.797-.817,1.132-1.569-.488-.409-1.826-2.721-2.607-2.594-.931-.134-1.913,2.46-2.391,2.975-.691,1.086,1.019,2.155,1.693,1.065,1.757,7.021,11.415,6.784,12.96-.232.557,1.303,2.545.31,1.794-.904-.61-.592-1.687-3.777-2.927-3.23-.937.603-4.214,4.826-1.063,4.388-.571,1.44-1.892,2.76-3.331,3.164l.027-7.88c.84-.075,2.912.413,2.885-.989.038-1.404-2.042-.93-2.878-1.011v-.224c3.672-.999,2.837-6.791-.996-6.686h0ZM23.936,19.365c-1.836.024-1.836-2.86,0-2.834,1.838-.025,1.838,2.859,0,2.834Z" fill="#fff"/>
    <path id="stroke" d="M23.937,14.531c-.358,0-.72.056-1.074.166-1.035.322-1.873,1.168-2.186,2.21-.295.981-.17,1.987.352,2.832.439.712,1.119,1.234,1.905,1.476v.219s-1.889-.007-1.889-.007c0,0,0,0-.001,0-.581,0-1.001.428-1.003.996-.002.552.445,1.002.996,1.004l1.889.007-.027,7.907c-.804-.256-1.584-.765-2.239-1.491-.423-.468-.768-1.009-1.022-1.594.114.044.236.067.361.067.232,0,.458-.081.636-.229.204-.167.333-.407.359-.673.026-.266-.053-.527-.224-.734l-1.83-2.227c-.01-.013-.048-.055-.059-.066-.128-.135-.304-.234-.5-.277-.08-.016-.149-.024-.217-.024-.014,0-.061.002-.075.003-.175.014-.344.074-.488.172-.049.032-.105.078-.155.131-.054.056-.103.12-.143.187l-1.531,2.481c-.288.469-.142,1.086.325,1.376.163.098.343.148.526.148.344,0,.658-.171.842-.459.336,1.137.916,2.177,1.71,3.057,1.301,1.442,3.02,2.273,4.716,2.278,1.762,0,3.582-.907,4.888-2.427.785-.915,1.343-1.983,1.646-3.14l.102.162c.184.293.501.468.847.468.19,0,.376-.055.536-.158.221-.139.379-.36.438-.621.06-.261.014-.529-.129-.756l-1.765-2.803c-.037-.065-.1-.143-.176-.213-.05-.046-.108-.089-.17-.126-.148-.086-.314-.133-.484-.137-.004,0-.008,0-.012,0-.013,0-.026,0-.039.002-.11.008-.172.016-.246.037-.012.003-.024.007-.036.012-.187.06-.35.174-.473.33-.008.011-.035.046-.042.057l-1.763,2.511c-.154.218-.213.483-.167.747.046.264.192.493.412.647.167.118.365.181.572.181.139,0,.275-.029.399-.083-.238.575-.564,1.111-.968,1.582-.661.77-1.498,1.33-2.362,1.582l.027-7.88,1.882.007c.553,0,1.002-.447,1.004-.996.002-.552-.445-1.002-.996-1.004l-1.882-.007v-.224c1.425-.432,2.421-1.745,2.421-3.269,0-1.884-1.533-3.417-3.417-3.417h0ZM23.936,19.365c-.781,0-1.415-.636-1.415-1.417s.635-1.417,1.416-1.417,1.417.636,1.417,1.417-.635,1.416-1.416,1.417h-.001Z" fill="none" stroke="#000" stroke-linecap="round" stroke-linejoin="round"/>
  </g>
</svg>