<?xml version="1.0" encoding="UTF-8"?>
<svg id="SCIM3_POI_Icons" data-name="SCIM3 POI Icons" xmlns="http://www.w3.org/2000/svg" width="48" height="48" viewBox="0 0 48 48">
  <g id="bus-stop">
    <path id="fill" d="M27.318,29.156l-6.581.02.496-6.583,7.031-.005.474,1.882h4.263v4.706s-1.895-.007-1.895-.007c-.004-1.036-.85-1.876-1.894-1.876s-1.881.832-1.893,1.862ZM15,20.706c0,.52.424.941.947.941h1.895c.523,0,.947-.421.947-.941v-3.765c0-.52-.424-.941-.947-.941h-1.895c-.523,0-.947.421-.947.941v3.765Z" fill="#fff"/>
    <path id="stroke" d="M15,16.941c0-.52.424-.941.947-.941h1.895c.523,0,.947.421.947.941v3.765c0,.52-.424.941-.947.941h-1.895c-.523,0-.947-.421-.947-.941v-3.765ZM27.316,29.176c0,1.04.848,1.882,1.895,1.882s1.895-.843,1.895-1.882-.848-1.882-1.895-1.882-1.895.843-1.895,1.882M31.105,29.176h1.895v-4.706c0-3.639-2.121-6.588-4.737-6.588h-6.632M27.316,29.176h-7.579M27.316,17.882l1.421,6.588h4.263M21.158,22.588h7.105M23.526,17.882v3.01M16.895,21.647v10.353" fill="none" stroke="#000" stroke-linecap="round" stroke-linejoin="round"/>
  </g>
</svg>