<?xml version="1.0" encoding="UTF-8"?>
<svg id="SCIM3_POI_Icons" data-name="SCIM3 POI Icons" xmlns="http://www.w3.org/2000/svg" width="48" height="48" viewBox="0 0 48 48">
  <g id="Castle">
    <path id="Fill" d="M25.778,27.556c0-.982-.796-1.778-1.778-1.778s-1.778.796-1.778,1.778v4.444h-2.667c-.491,0-.889-.398-.889-.889v-6.572c0-.351-.104-.694-.299-.987l-1.18-1.771c-.195-.292-.299-.635-.299-.987v-3.906c0-.491.398-.889.889-.889h.889c.491,0,.889.398.889.889v1.778h2.667v-1.778c0-.491.398-.889.889-.889h1.778c.491,0,.889.398.889.889v1.778h2.667v-1.778c0-.491.398-.889.889-.889h.889c.491,0,.889.398.889.889v3.906c0,.351-.104.694-.299.987l-1.18,1.771c-.195.292-.299.635-.299.987v6.572c0,.491-.398.889-.889.889h-2.667v-4.444Z" fill="#f2f2f0"/>
    <path id="Stroke" d="M25.778,27.556c0-.982-.796-1.778-1.778-1.778s-1.778.796-1.778,1.778v4.444h-2.667c-.491,0-.889-.398-.889-.889v-6.572c0-.351-.104-.694-.299-.987l-1.18-1.771c-.195-.292-.299-.635-.299-.987v-3.906c0-.491.398-.889.889-.889h.889c.491,0,.889.398.889.889v1.778h2.667v-1.778c0-.491.398-.889.889-.889h1.778c.491,0,.889.398.889.889v1.778h2.667v-1.778c0-.491.398-.889.889-.889h.889c.491,0,.889.398.889.889v3.906c0,.351-.104.694-.299.987l-1.18,1.771c-.195.292-.299.635-.299.987v6.572c0,.491-.398.889-.889.889h-2.667v-4.444Z" fill="none" stroke="#000" stroke-linecap="round" stroke-linejoin="round"/>
  </g>
</svg>