<?xml version="1.0" encoding="UTF-8"?>
<svg id="SCIM3_POI_Icons" data-name="SCIM3 POI Icons" xmlns="http://www.w3.org/2000/svg" width="48" height="48" viewBox="0 0 48 48">
  <g id="badehose">
    <path id="Fill" d="M31.198,19.233l.052-1.71c.009-.295-.245-.527-.539-.497-6.072.618-11.569.163-13.377-.023-.329-.034-.605.235-.585.565l.098,1.562s-1.579,10.78-1.408,10.952c1.42,1.42,7.828-.069,7.828-.069l.721-4.498.515,4.601s7.319,1.942,8.068.069c.069-.172-1.373-10.952-1.373-10.952Z" fill="#fff"/>
    <path id="Stroke" d="M32.571,30.185c-.749,1.873-8.068-.069-8.068-.069l-.515-4.601-.721,4.498s-6.408,1.489-7.828.069c-.172-.172,1.408-10.952,1.408-10.952l-.098-1.562c-.021-.33.256-.599.585-.565,1.808.187,7.305.641,13.377.023.293-.03.548.202.539.497l-.052,1.71s1.442,10.78,1.373,10.952ZM16.229,23.868l1.614-3.399M31.782,23.971l-1.545-3.708M18.358,18.993c5.837.858,12.943-.034,12.943-.034M22.615,23.731c-.112-.302.103-1.27.425-1.587,1.218-1.199.113-3.206.193-3.528M24.846,18.718c-.211,1.2.275,2.506.172,3.983-.014.207.11.396.172.584" fill="none" stroke="#000" stroke-linecap="round" stroke-linejoin="round"/>
  </g>
</svg>