<?xml version="1.0" encoding="UTF-8"?>
<svg id="SCIM3_POI_Icons" data-name="SCIM3 POI Icons" xmlns="http://www.w3.org/2000/svg" width="48" height="48" viewBox="0 0 48 48">
  <g id="Glas">
    <path id="Fill" d="M20,32v-3.625c.002-1.386-.286-2.757-.845-4.025l-.31-.7c-.555-1.25-.345-2.203-.345-3.6h11.25c0,1.397-.039,2.35-.595,3.6l-.31.7c-.555,1.25-.845,2.628-.845,4.025v3.625c0,.552-.448,1-1,1h-6c-.552,0-1-.448-1-1Z" fill="#f2f2f0"/>
    <path id="Stroke" d="M20,32v-3.625c.002-1.386-.286-2.757-.845-4.025l-.31-.7c-.555-1.25-1-2.162-1-3.559l.155-4.091c0-.552.448-1,1-1h10c.552,0,1,.448,1,1v4c0,1.397-.289,2.4-.845,3.65l-.31.7c-.555,1.25-.845,2.628-.845,4.025v3.625c0,.552-.448,1-1,1h-6c-.552,0-1-.448-1-1ZM19.441,20.003l10.559-.003" fill="none" stroke="#000" stroke-linecap="round" stroke-linejoin="round"/>
  </g>
</svg>