<?xml version="1.0" encoding="UTF-8"?>
<svg id="SCIM3_POI_Icons" data-name="SCIM3 POI Icons" xmlns="http://www.w3.org/2000/svg" width="48" height="48" viewBox="0 0 48 48">
  <g id="tueranhaenger">
    <path id="Fill" d="M20.444,22.222c-.736,0-1.333-.597-1.333-1.333,0-2.7,2.189-4.889,4.889-4.889s4.889,2.189,4.889,4.889v9.333c0,.982-.796,1.778-1.778,1.778h-6.222c-.982,0-1.778-.796-1.778-1.778v-1.778c0-1.227.631-2.172,1.671-2.822l3.932-2.458c.938-.587,1.508-1.17,1.508-2.276,0-1.227-.995-2.222-2.222-2.222s-2.222.995-2.222,2.222c0,.736-.597,1.333-1.333,1.333Z" fill="#fff"/>
    <path id="Stroke" d="M20.444,22.222c-.736,0-1.333-.597-1.333-1.333,0-2.7,2.189-4.889,4.889-4.889s4.889,2.189,4.889,4.889v9.333c0,.982-.796,1.778-1.778,1.778h-6.222c-.982,0-1.778-.796-1.778-1.778v-1.778c0-1.227.631-2.172,1.671-2.822l3.932-2.458c.938-.587,1.508-1.17,1.508-2.276,0-1.227-.995-2.222-2.222-2.222s-2.222.995-2.222,2.222c0,.736-.597,1.333-1.333,1.333Z" fill="none" stroke="#000" stroke-linecap="round" stroke-linejoin="round"/>
  </g>
</svg>