<?xml version="1.0" encoding="UTF-8"?>
<svg id="SCIM3_POI_Icons" data-name="SCIM3 POI Icons" xmlns="http://www.w3.org/2000/svg" width="48" height="48" viewBox="0 0 48 48">
  <g id="karabiner">
    <path id="Fill" d="M24.387,20.965l-1.155,7.295-1.797.253,1.063-6.951,1.89-.597ZM18.938,23.114l-1.084-2.343c-.328-.709.079-1.996.867-2.36l5.331-2.356c2.422-1.121,5.095-.141,5.333,2.877l.867,9.396c.108,1.37-1.081,2.877-2.449,3.51l-.008.004c-2.193,1.014-4.711.236-5.624-1.739l-.251-.543,1.695-.671c.795,1.186,2.224,1.703,3.403,1.158l.005-.002c.828-.383,1.283-1.328,1.13-2.345l-.69-7.458c-.399-2.654-1.299-3.039-3.423-2.057l-3.605,1.668c-.382.177-.723.525-.441,1.204l.22.582-1.276,1.475Z" fill="#f2f2f0"/>
    <path id="Stroke" d="M24.387,20.964l-1.155,7.295-1.797.253,1.063-6.951,1.89-.597ZM18.938,23.113l-1.084-2.343c-.328-.709.079-1.996.867-2.36l5.331-2.356c2.422-1.121,5.097-.11,5.333,2.877l.867,9.396c.108,1.37-1.081,2.877-2.449,3.51l-.008.004c-2.193,1.014-4.711.236-5.624-1.739l-.251-.543,1.695-.671c.795,1.186,2.224,1.703,3.403,1.158l.005-.002c.828-.383,1.283-1.328,1.13-2.345l-.69-7.458c-.399-2.654-1.299-3.039-3.423-2.057l-3.605,1.668c-.382.177-.723.525-.441,1.204l.22.582-1.276,1.475Z" fill="none" stroke="#000" stroke-linecap="round" stroke-linejoin="round"/>
  </g>
</svg>