<?xml version="1.0" encoding="UTF-8"?>
<svg id="SCIM3_POI_Icons" data-name="SCIM3 POI Icons" xmlns="http://www.w3.org/2000/svg" width="48" height="48" viewBox="0 0 48 48">
  <g id="milch-kanne">
    <path id="fill" d="M21.467,18.07s-2.176,1.828-2.594,2.656c-.153.304-.219,1.344-.219,1.344M29.092,31.914l.031-9.844s-.065-1.04-.219-1.344c-.418-.829-2.594-2.656-2.594-2.656l.031-1.469s.572-.495.594-.672c.034-.276-.688-1.141-.688-1.141h-4.719s-.721.864-.688,1.141c.022.177.531.672.531.672l.094,1.469s-2.176,1.828-2.594,2.656c-.153.304-.219,1.344-.219,1.344l.031,9.844c.368.479,2.691,1.292,5.062,1.297,2.461.005,4.974-.815,5.344-1.297Z" fill="#fff"/>
    <path id="stroke" d="M21.467,18.07s-2.176,1.828-2.594,2.656c-.153.304-.219,1.344-.219,1.344M29.092,31.914l.031-9.844s-.065-1.04-.219-1.344c-.418-.829-2.594-2.656-2.594-2.656l.031-1.469s.572-.495.594-.672c.034-.276-.688-1.141-.688-1.141h-4.719s-.721.864-.688,1.141c.022.177.531.672.531.672l.094,1.469s-2.176,1.828-2.594,2.656c-.153.304-.219,1.344-.219,1.344l.031,9.844c.368.479,2.691,1.292,5.062,1.297,2.461.005,4.974-.815,5.344-1.297ZM29.029,21.664c-.015,1.119-6.173,1.382-8.828.778M22.951,18.352h3.609M21.451,16.32h4.812M19.67,20.773c-1.242-1.823-1.768-2.766-1.327-3.016.335-.19,1.158.076,2.468.797M27.189,18.555c1.31-.721,2.132-.987,2.468-.797.441.25-.085,1.193-1.327,3.016" fill="none" stroke="#000" stroke-linecap="round" stroke-linejoin="round"/>
  </g>
</svg>