<?xml version="1.0" encoding="UTF-8"?>
<svg id="SCIM3_POI_Icons" data-name="SCIM3 POI Icons" xmlns="http://www.w3.org/2000/svg" width="48" height="48" viewBox="0 0 48 48">
  <g id="gleitschirm">
    <path id="Fill" d="M16,24c0-1.494,1.16-2.7,2.6-2.7,1.432,0,2.6,1.206,2.6,2.7,0-1.494,1.256-2.7,2.8-2.7s2.8,1.206,2.8,2.7c0-1.494,1.16-2.7,2.6-2.7,1.432,0,2.6,1.206,2.6,2.7,0-4.971-3.582-9-8-9s-8,4.029-8,9Z" fill="#fff"/>
    <path id="Stroke" d="M16,24c0-4.971,3.582-9,8-9s8,4.029,8,9M32,24c0-1.494-1.168-2.7-2.6-2.7-1.44,0-2.6,1.206-2.6,2.7,0-1.494-1.256-2.7-2.8-2.7s-2.8,1.206-2.8,2.7c0-1.494-1.168-2.7-2.6-2.7-1.44,0-2.6,1.206-2.6,2.7M16,24l8,9-2.8-9M26.8,24l-2.8,9,8-9" fill="none" stroke="#000" stroke-linecap="round" stroke-linejoin="round"/>
  </g>
</svg>