<?xml version="1.0" encoding="UTF-8"?>
<svg id="SCIM3_POI_Icons" data-name="SCIM3 POI Icons" xmlns="http://www.w3.org/2000/svg" width="48" height="48" viewBox="0 0 48 48">
  <g id="rotes-salzfass">
    <path id="fill" d="M18.583,16.854s2.042-.68,5.445-.68,5.445.68,5.445.68c3.164,6.274-.68,14.293-.68,14.293,0,0-1.981.68-4.764.68s-3.352-.42-3.352-.42c0,0-3.844-8.609-.68-14.883" fill="#f30"/>
    <path id="stroke" d="M29.865,18.215s-2.219.793-5.918.793-5.918-.793-5.918-.793M18.811,29.738s2.435.675,5.478.675,4.793-.675,4.793-.675M18.64,22.979s2.707.68,6.089.68,5.481-.68,5.481-.68M18.684,25.013s2.196.675,5.738.675,5.737-.675,5.737-.675M19.209,31.146s1.981.68,4.764.68,4.764-.68,4.764-.68c0,0,3.844-8.019.68-14.293,0,0-2.042-.68-5.445-.68s-5.445.68-5.445.68c-3.164,6.274.68,14.293.68,14.293M29.418,16.854s-1.922.68-5.125.68-5.765-.68-5.765-.68" fill="none" stroke="#000" stroke-linecap="round" stroke-linejoin="round"/>
  </g>
</svg>
