<?xml version="1.0" encoding="UTF-8"?>
<svg id="SCIM3_POI_Icons" data-name="SCIM3 POI Icons" xmlns="http://www.w3.org/2000/svg" width="48" height="48" viewBox="0 0 48 48">
  <g id="salz-kuf">
    <polygon points="31 31.5 29.478 31.5 28.565 24.5 30 24.5 30 22.5 28.304 22.5 27.522 16.5 28.5 16.5 28.5 14.5 27.261 14.5 27 12.5 23 12.5 22.739 14.5 21.5 14.5 21.5 16.5 22.478 16.5 21.696 22.5 20 22.5 20 24.5 21.435 24.5 20.522 31.5 19 31.5 19 33.5 20.261 33.5 20 35.5 30 35.5 29.739 33.5 31 33.5 31 31.5" fill="#ffe2b0"/>
    <path d="M26,24.5l.5,5.5M29.478,31.5l-.913-7M19.435,24.5l-.913,7M28.304,22.5l-.783-6M18.261,33.5l-.261,2h12l-.261-2M27.261,14.5l-.261-2h-6l-.261,2M28.5,16.5h-9v-2h9v2ZM30,22.5h-12v2h12v-2ZM31,31.5h-14v2h14v-2ZM25.5,16.5l.5,6M19.609,22.5l.783-6" fill="none" stroke="#000" stroke-linecap="round" stroke-linejoin="round"/>
  </g>
</svg>