<?xml version="1.0" encoding="UTF-8"?>
<svg id="SCIM3_POI_Icons" data-name="SCIM3 POI Icons" xmlns="http://www.w3.org/2000/svg" width=".667in" height=".667in" viewBox="0 0 48 48">
  <g id="pferd">
    <path id="fill" d="M19,22.713l-.85,8.507c-.075.746.468,1.411,1.214,1.486.045.005.09.007.136.007h.146c.818,0,1.553-.498,1.857-1.257l.994-2.486c.304-.759,1.039-1.257,1.857-1.257h1.292c.818,0,1.553.498,1.857,1.257l.994,2.486c.304.759,1.039,1.257,1.857,1.257h.146c.757,0,1.37-.614,1.37-1.37,0-.041-.002-.083-.006-.124l-.864-9.506h-8c0-3-3-5-6-5l-3,6,2,2,3-2Z" fill="#f2f2f0"/>
    <path id="stroke" d="M16,24.713l-2-2,3-6c3,0,6,2,6,5h8l.864,9.506c.004.041.006.082.006.124,0,.757-.613,1.37-1.37,1.37h-.146c-.818,0-1.553-.498-1.857-1.257l-.994-2.486c-.304-.759-1.039-1.257-1.857-1.257h-1.292c-.818,0-1.553.498-1.857,1.257l-.994,2.486c-.304.759-1.039,1.257-1.857,1.257h-.146c-.045,0-.091-.002-.136-.007-.746-.075-1.289-.74-1.214-1.486l.85-8.507-3,2ZM34,26.713v-2c0-1.657-1.343-3-3-3M20.172,21.849l-1.216.905M18.623,15.287l-1.601,1.504M19.124,17.069l1.601-.989M21.087,18.057l1.587-.668M22.48,19.673l1.824-.362" fill="none" stroke="#000" stroke-linecap="round" stroke-linejoin="round"/>
  </g>
</svg>