<?xml version="1.0" encoding="UTF-8"?>
<svg id="SCIM3_POI_Icons" data-name="SCIM3 POI Icons" xmlns="http://www.w3.org/2000/svg" width="48" height="48" viewBox="0 0 48 48">
  <g id="g-karo">
    <path id="fill-black" d="M34.771,26.22l-8.543,8.51c-1.231,1.226-3.226,1.226-4.457,0l-8.543-8.51c-1.231-1.226-1.231-3.214,0-4.44l8.543-8.51c1.231-1.226,3.226-1.226,4.457,0l8.543,8.51c1.231,1.226,1.231,3.214,0,4.44Z"/>
    <path id="fill-green" d="M24.582,25.311h-2.591l-.016-1.571h4.362s-.016,5.21-.016,5.21l-1.432-.016-.209-1.267c-.419.888-1.513,1.523-2.916,1.491-2.946-.067-4.169-2.678-4.15-4.943.032-3.731,2.334-5.367,4.748-5.351,2.136.014,3.46,1.058,3.927,2.726l-1.69.561c-.338-.85-.876-1.486-2.281-1.486-1.717,0-2.756,1.294-2.756,3.41,0,2.348,1.159,3.399,2.591,3.383,2.365-.026,2.43-2.149,2.43-2.149ZM29.249,18.839c-.629,0-1.138.508-1.138,1.134s.51,1.134,1.138,1.134,1.138-.508,1.138-1.134-.51-1.134-1.138-1.134ZM29.232,22.094c-.629,0-1.138.508-1.138,1.134s.51,1.134,1.138,1.134,1.138-.508,1.138-1.134-.51-1.134-1.138-1.134Z" fill="#7fb927"/>
  </g>
</svg>