<?xml version="1.0" encoding="UTF-8"?>
<svg id="SCIM3_POI_Icons" data-name="SCIM3 POI Icons" xmlns="http://www.w3.org/2000/svg" width="48" height="48" viewBox="0 0 48 48">
  <g id="Restaurant">
    <path id="Fill" d="M23.978,16c1.704,0,3.126,1.194,3.473,2.788,1.894-.511,3.845.605,4.358,2.492.513,1.887.029,3.83-1.865,4.341l-.037,2.85-.79.014v3.44l-9.747.075v-3.113l-1-.047v-3.145c-1.894-.511-2.736-2.53-2.222-4.417.513-1.887,2.465-3.002,4.359-2.491.355-1.627,1.8-2.787,3.471-2.788ZM22.508,28.432l6.608.042" fill="#f2f2f0"/>
    <path id="Stroke" d="M23.978,16c1.704,0,3.126,1.194,3.473,2.788,1.894-.511,3.845.605,4.358,2.492.513,1.887.029,3.83-1.865,4.341l-.037,2.85-.79.014v3.44l-9.747.075v-3.113l-1-.047v-3.145c-1.894-.511-2.736-2.53-2.222-4.417.513-1.887,2.465-3.002,4.359-2.491.355-1.627,1.8-2.787,3.471-2.788ZM22.508,28.432l6.608.042" fill="none" stroke="#000" stroke-linecap="round" stroke-linejoin="round"/>
  </g>
</svg>