<?xml version="1.0" encoding="UTF-8"?>
<svg id="SCIM3_POI_Icons" data-name="SCIM3 POI Icons" xmlns="http://www.w3.org/2000/svg" width="48" height="48" viewBox="0 0 48 48">
  <g id="schiff">
    <path id="Fill" d="M16.776,29.696c.084-.005.167-.009.239-.007.69-.015,1.344.324,1.746.905.403.582,1.056.92,1.746.905.69.015,1.344-.324,1.746-.905.403-.582,1.056-.92,1.746-.905.69-.015,1.344.324,1.746.905.403.582,1.056.92,1.746.905.507.011.993-.172,1.375-.499l3.67-7.122-2.813-.024-2.353-2.692s-1.528-1.601-3.735-1.722l-5.36-.024-.048,4.463h-2.839s1.36,5.772,1.36,5.772c.009.016.019.029.028.045Z" fill="#fff"/>
    <path id="Stroke" d="M15.269,30.594c.403-.582,1.056-.92,1.746-.905.69-.015,1.344.324,1.746.905.403.582,1.056.92,1.746.905.69.015,1.344-.324,1.746-.905.403-.582,1.056-.92,1.746-.905.69-.015,1.344.324,1.746.905.403.582,1.056.92,1.746.905.69.015,1.344-.324,1.746-.905s1.056-.92,1.746-.905c.69-.015,1.344.324,1.746.905M30.68,27.493l1.909-3.623H15.411l1.223,5.323M29.726,23.871l-2.171-2.516c-1.037-1.202-2.65-1.907-4.362-1.907h-4.919v2.368M24.477,19.448v-2.948h-.954" fill="none" stroke="#000" stroke-linecap="round" stroke-linejoin="round"/>
  </g>
</svg>