<?xml version="1.0" encoding="UTF-8"?>
<svg id="SCIM3_POI_Icons" data-name="SCIM3 POI Icons" xmlns="http://www.w3.org/2000/svg" width="48" height="48" viewBox="0 0 48 48">
  <g id="segelboot">
    <path id="fill" d="M16,30l-1-3h18l-1,3-1.041,2.777c-.376-.171-.711-.431-.959-.777-.461-.643-1.209-1.017-2-1-.791-.017-1.539.357-2,1s-1.209,1.017-2,1c-.791.017-1.539-.357-2-1s-1.209-1.017-2-1c-.791-.017-1.539.357-2,1-.273.38-.652.651-1.076.818l-.924-2.818ZM23,24v-9l7,9h-7" fill="#fff"/>
    <path id="stroke" d="M14,32c.461.643,1.209,1.017,2,1,.791.017,1.539-.357,2-1s1.209-1.017,2-1c.791-.017,1.539.357,2,1s1.209,1.017,2,1c.791.017,1.539-.357,2-1s1.209-1.017,2-1c.791-.017,1.539.357,2,1s1.209,1.017,2,1c.791.017,1.539-.357,2-1M16,30l-1-3h18l-1,3M23,24h7l-7-9v9M20,19l-2,5" fill="none" stroke="#000" stroke-linecap="round" stroke-linejoin="round"/>
  </g>
</svg>