<?xml version="1.0" encoding="UTF-8"?>
<svg id="SCIM3_POI_Icons" data-name="SCIM3 POI Icons" xmlns="http://www.w3.org/2000/svg" width="48" height="48" viewBox="0 0 48 48">
  <g id="Seilbahn_up" data-name="Seilbahn up">
    <path id="Fill" d="M17.044,27.417c-.011,2.016.574,4.039,1.761,5.383h9.339c1.236-1.344,1.846-3.367,1.858-5.383h-12.959Z" fill="#f0f0ee"/>
    <path id="Stroke" d="M18.805,22.147h9.524c2.264,2.663,2.264,7.99-.185,10.653h-9.339c-2.351-2.663-2.351-7.99,0-10.653ZM23.524,24.068v3.405M23.524,19.482v2.55M31.958,15.625l-16.389,4.65M17.053,27.473h12.87M20.292,19.81c.669-.104,1.126-.731,1.022-1.4s-.731-1.126-1.4-1.022-1.126.731-1.022,1.4.731,1.126,1.4,1.022ZM26.901,17.894c.669-.104,1.126-.731,1.022-1.4s-.731-1.126-1.4-1.022-1.126.731-1.022,1.4.731,1.126,1.4,1.022ZM23.584,18.853c.669-.104,1.126-.731,1.022-1.4s-.731-1.126-1.4-1.022-1.126.731-1.022,1.4.731,1.126,1.4,1.022ZM29.587,18.846l3.371-3.638-3.833-.583" fill="none" stroke="#000" stroke-linecap="round" stroke-linejoin="round"/>
  </g>
</svg>