<?xml version="1.0" encoding="UTF-8"?>
<svg id="SCIM3_POI_Icons" data-name="SCIM3 POI Icons" xmlns="http://www.w3.org/2000/svg" width="48" height="48" viewBox="0 0 48 48">
  <g id="Seilbahn_down" data-name="Seilbahn down">
    <path id="Fill" d="M17.044,27.417c-.011,2.016.574,4.039,1.761,5.383h9.339c1.236-1.344,1.846-3.367,1.858-5.383h-12.959Z" fill="#f0f0ee"/>
    <path id="Stroke" d="M18.805,22.147h9.524c2.264,2.663,2.264,7.99-.185,10.653h-9.339c-2.351-2.663-2.351-7.99,0-10.653ZM23.524,24.068v3.405M23.524,18v4.031M32.052,14.469l-16.389,4.65M17.053,27.473h12.87M20.386,18.654c.669-.104,1.126-.731,1.022-1.4s-.731-1.126-1.4-1.022-1.126.731-1.022,1.4.731,1.126,1.4,1.022ZM26.994,16.737c.669-.104,1.126-.731,1.022-1.4s-.731-1.126-1.4-1.022-1.126.731-1.022,1.4.731,1.126,1.4,1.022ZM23.677,17.697c.669-.104,1.126-.731,1.022-1.4s-.731-1.126-1.4-1.022-1.126.731-1.022,1.4.731,1.126,1.4,1.022ZM17.006,16.604l-2.434,3.018,4.022.785" fill="none" stroke="#000" stroke-linecap="round" stroke-linejoin="round"/>
  </g>
</svg>