<?xml version="1.0" encoding="UTF-8"?>
<svg id="SCIM3_POI_Icons" data-name="SCIM3 POI Icons" xmlns="http://www.w3.org/2000/svg" width="48" height="48" viewBox="0 0 48 48">
  <g id="sendemast">
    <path id="fill" d="M17.335,27.5c-.196,0-.381-.116-.461-.308-.787-1.888-.787-4.053,0-5.94.793-1.903,2.28-3.384,4.187-4.169,1.907-.785,4.006-.781,5.909.013,1.903.793,3.384,2.28,4.169,4.187.785,1.907.781,4.005-.013,5.909-.106.255-.398.376-.654.269-.255-.106-.375-.399-.269-.654.69-1.657.694-3.484.011-5.144-.684-1.66-1.973-2.955-3.629-3.645-1.657-.691-3.484-.695-5.144-.011-1.66.684-2.955,1.973-3.645,3.629-.685,1.643-.685,3.527,0,5.17.106.255-.014.548-.269.654-.063.026-.128.039-.192.039ZM27.07,25.189c.702-1.721-.1-3.707-1.788-4.426-.813-.347-1.711-.354-2.528-.016-.833.343-1.481.997-1.826,1.841-.342.838-.342,1.762,0,2.601.104.256.396.379.652.274.255-.104.378-.396.274-.652-.239-.586-.239-1.259,0-1.845.243-.595.697-1.055,1.28-1.294.568-.233,1.191-.229,1.755.011,1.188.506,1.75,1.91,1.254,3.128-.104.256.019.548.274.652.062.025.126.037.189.037.197,0,.384-.117.463-.311Z" fill="#fff"/>
    <path id="stroke" d="M23,24c0,.552.448,1,1,1s1-.448,1-1-.448-1-1-1-1,.448-1,1M28.616,25.924c1.063-2.549-.142-5.476-2.691-6.539-2.549-1.063-5.476.142-6.539,2.691-.513,1.231-.513,2.617,0,3.848M32.307,27.469c1.912-4.588-.257-9.857-4.845-11.77-4.588-1.912-9.857.257-11.769,4.845-.923,2.216-.923,4.708,0,6.924M21,33l3-9,3,9M22,31h4" fill="none" stroke="#000" stroke-linecap="round" stroke-linejoin="round"/>
  </g>
</svg>