<?xml version="1.0" encoding="UTF-8"?>
<svg id="SCIM3_POI_Icons" data-name="SCIM3 POI Icons" xmlns="http://www.w3.org/2000/svg" width="48" height="48" viewBox="0 0 48 48">
  <g id="eis-am-stiel">
    <path id="fill" d="M27.531,18.229c-1.571,0-2.844-1.264-2.844-2.823,0-.463.123-.894.322-1.279-.325-.075-.66-.127-1.01-.127-2.388,0-4.324,1.936-4.324,4.324l.008,8.164,8.646-1.783c0-.05-.009-6.179-.011-6.6-.251.072-.512.123-.787.123Z" fill="#fff"/>
    <path id="stroke" d="M24,34v-4.865M19.676,26.432l8.649-1.784-8.649,1.784ZM27.531,18.229c-1.571,0-2.844-1.264-2.844-2.823,0-.462.122-.891.32-1.276-.325-.078-.659-.13-1.008-.13-2.388,0-4.324,1.936-4.324,4.324l-.019,7.894.406.062-.062,2.875,8.141-.031-.109-4.016.293.516v-7.301c0-.073-.018-.141-.022-.214-.247.069-.502.119-.772.119ZM21.042,14.458l-.25.208M21.25,16.625l-.104.354M23.937,17.687l.062.5M21.25,19.625l.312-.396M23,21.479l-.042-.292M25.604,21.25l.083-.583M21.646,23.062l-.062.562" fill="none" stroke="#000" stroke-linecap="round" stroke-linejoin="round"/>
  </g>
</svg>
