<?xml version="1.0" encoding="UTF-8"?>
<svg id="SCIM3_POI_Icons" data-name="SCIM3 POI Icons" xmlns="http://www.w3.org/2000/svg" width="48" height="48" viewBox="0 0 48 48">
  <g id="Talstation">
    <polygon id="Fill" points="34.031 26.031 31.761 24.963 31.938 24.906 28.479 21.695 30.281 20.656 20.375 20.656 15.875 22.531 26.812 22.656 26.971 22.565 27.031 28.062 29 28.281 28.941 25.995 31.062 26.875 31.312 26.804 31.281 29.281 33.665 28.182 33.657 26.138 34.031 26.031" fill="#fff"/>
    <path id="Stroke" d="M14.094,16.594l11.719,8.25M13.969,20.969l8.375,4.781M28.781,28.25l-1.75-.188-.062-5.312-9.125-.125.625,4.75-1.688-.062M28.906,25.906l2.156.969,2.969-.844-2.281-1.062-2.844.938ZM33.656,26.281l-2.344.719-.031,2.281,2.384-.987-.009-2.013ZM15.875,22.531l10.938.125,3.469-2h-9.906l-4.5,1.875ZM31.406,24.594l-2.594-2.625M17.688,27.406l.125,3.094M27.531,28.125l-.031,3.125M20.5,25.031l.062,1.5M21.156,29.562l1.656.219,2.656-.875M21.156,27.219l-1.344-.031s-.606,1.634-.345,2.058c.181.294,1.22.192,1.22.192M26.719,27.25l-3.25-.219M22.844,28.375l.062,3.031" fill="none" stroke="#000" stroke-linecap="round" stroke-linejoin="round"/>
  </g>
</svg>