<?xml version="1.0" encoding="UTF-8"?>
<svg id="SCIM3_POI_Icons" data-name="SCIM3 POI Icons" xmlns="http://www.w3.org/2000/svg" width=".667in" height=".667in" viewBox="0 0 48 48">
  <g id="volleyball">
    <path id="fill" d="M24,16c-4.418,0-8,3.582-8,8s3.582,8,8,8,8-3.582,8-8-3.582-8-8-8" fill="#f2f2f0"/>
    <path id="stroke" d="M24,16c4.418,0,8,3.582,8,8s-3.582,8-8,8-8-3.582-8-8,3.582-8,8-8M24,24c-2.523,1.425-3.93,4.238-3.556,7.111M22.667,20c-3.004,1.473-5.143,4.27-5.778,7.556M24,24c.028-2.897-1.705-5.522-4.38-6.635M28.131,24.845c.227-3.339-1.126-6.59-3.654-8.782M24,24c2.495,1.473,5.635,1.284,7.936-.476M21.203,27.155c2.778,1.866,6.27,2.32,9.432,1.227" fill="none" stroke="#000" stroke-linecap="round" stroke-linejoin="round"/>
  </g>
</svg>