<?xml version="1.0" encoding="UTF-8"?>
<svg id="SCIM3_POI_Icons" data-name="SCIM3 POI Icons" xmlns="http://www.w3.org/2000/svg" width="48" height="48" viewBox="0 0 48 48">
  <g id="Wasser">
    <path id="Fill" d="M28.5,32.032c-1.596,0-3.192-.528-4.777-1.585-2.842-1.895-5.604-1.895-8.445,0-.229.152-.539.092-.693-.139-.153-.229-.091-.54.139-.693,3.17-2.113,6.385-2.113,9.555,0,2.842,1.895,5.604,1.895,8.445,0,.228-.152.539-.092.693.139.153.229.091.54-.139.693-1.585,1.057-3.182,1.585-4.777,1.585ZM28.5,27.032c-1.596,0-3.192-.528-4.777-1.585-2.842-1.895-5.604-1.895-8.445,0-.229.151-.539.091-.693-.139-.153-.229-.091-.54.139-.693,3.17-2.113,6.385-2.113,9.555,0,2.842,1.895,5.604,1.895,8.445,0,.228-.152.539-.092.693.139.153.229.091.54-.139.693-1.585,1.057-3.182,1.585-4.777,1.585ZM28.5,22.032c-1.596,0-3.192-.528-4.777-1.585-2.842-1.895-5.604-1.895-8.445,0-.229.151-.539.091-.693-.139-.153-.229-.091-.54.139-.693,3.17-2.113,6.385-2.113,9.555,0,2.842,1.895,5.604,1.895,8.445,0,.228-.153.539-.092.693.139.153.229.091.54-.139.693-1.585,1.057-3.182,1.585-4.777,1.585Z" fill="#fff"/>
    <path id="Stroke" d="M15,17.468c3-2,6-2,9,0s6,2,9,0M15,27.468c3-2,6-2,9,0s6,2,9,0M15,22.468c3-2,6-2,9,0s6,2,9,0" fill="none" stroke="#000" stroke-linecap="round" stroke-linejoin="round"/>
  </g>
</svg>