<?xml version="1.0" encoding="UTF-8"?>
<svg id="SCIM3_POI_Icons" data-name="SCIM3 POI Icons" xmlns="http://www.w3.org/2000/svg" width=".667in" height=".667in" viewBox="0 0 48 48">
  <g id="klopapier">
    <path id="fill" d="M16,22.222c0-3.436,1.194-6.222,2.667-6.222s2.667,2.786,2.667,6.222-1.194,6.222-2.667,6.222-2.667-2.786-2.667-6.222M21.333,22.222v8.889l1.539-1.026,1.128,1.915,1.265-1.402,1.402,1.402,1.267-.844,1.4.844,1.584-1.25,1.082.361v-8.889c0-3.436-1.194-6.222-2.667-6.222h-10.667l.137-.011c1.589.242,2.387,3.643,2.473,4.734l.056,1.499Z" fill="#f2f2f0"/>
    <path id="stroke" d="M16,22.222c0-3.436,1.194-6.222,2.667-6.222s2.667,2.786,2.667,6.222-1.194,6.222-2.667,6.222-2.667-2.786-2.667-6.222M21.333,22.222v8.889l1.539-1.026,1.128,1.915,1.265-1.402,1.402,1.402,1.267-.844,1.4.844,1.584-1.25,1.082.361v-8.889c0-3.436-1.194-6.222-2.667-6.222h-10.667l.137-.011c1.589.242,2.387,3.643,2.473,4.734l.056,1.499ZM18.671,19.999v4.4M18.667,28.444l2.333.003" fill="none" stroke="#000" stroke-linecap="round" stroke-linejoin="round"/>
  </g>
</svg>