<?xml version="1.0" encoding="UTF-8"?>
<svg id="SCIM3_POI_Icons" data-name="SCIM3 POI Icons" xmlns="http://www.w3.org/2000/svg" width="48" height="48" viewBox="0 0 48 48">
  <g id="schraubenschluessel">
    <path id="Fill" d="M19.045,23.331s2.444-.686,3.077-1.32,1.269-3.028,1.269-3.028l-2.877-2.828c5.463-1.391,6.851,4.877,5.65,7.391l5.216,5.217c.72.72.72,1.888,0,2.609-.72.72-1.888.72-2.608,0l-5.216-5.217c-4.508,2.154-8.712-2.881-7.389-5.652l2.877,2.828" fill="#f2f2f0"/>
    <path id="Stroke" d="M24.507,25.526s-.704.503-.954.646c-4.335,2.485-8.712-2.881-7.389-5.652l2.877,2.828M23.672,26.141l5.097,5.248c.72.72,1.888.72,2.608,0,.72-.72.72-1.888,0-2.609l-5.216-5.217c1.201-2.515-.266-8.921-5.65-7.391l2.877,2.828s-.636,2.394-1.269,3.028-3.077,1.32-3.077,1.32" fill="none" stroke="#000" stroke-linecap="round" stroke-linejoin="round"/>
  </g>
</svg>