<?xml version="1.0" encoding="UTF-8"?>
<svg id="kbc-s3-preview-iconset" xmlns="http://www.w3.org/2000/svg" width="32" height="32" viewBox="0 0 32 32">
  <rect width="32" height="32" fill="none"/>
  <g>
    <path d="M16.074,26.786,8.815,6.907s2.722-.907,7.26-.907,7.26.907,7.26.907c4.219,8.365-.907,19.057-.907,19.057,0,0-2.641.907-6.352.907s-6.352-.907-6.352-.907c0,0-5.126-10.692-.907-19.057" fill="#f30"/>
    <path d="M23.334,8.287s-2.722.907-7.26.907-7.26-.907-7.26-.907M9.774,23.65s2.987.9,6.72.9,5.88-.9,5.88-.9M8.815,14.639s3.609.907,8.119.907,7.308-.907,7.308-.907M8.874,17.35s2.928.9,7.65.9,7.65-.9,7.65-.9M15.926,26.35,9.573,25.528s2.641.907,6.352.907,6.352-.907,6.352-.907c0,0,5.126-10.692.907-19.057,0,0-2.722-.907-7.26-.907s-7.26.907-7.26.907c-4.219,8.365.907,19.057.907,19.057ZM23.185,6.472s-2.562.907-6.833.907-7.687-.907-7.687-.907" fill="none" stroke="#000" stroke-linecap="round" stroke-linejoin="round"/>
  </g>
</svg>