<?xml version="1.0" encoding="UTF-8"?>
<svg id="kbc-s3-preview-iconset" xmlns="http://www.w3.org/2000/svg" width="32" height="32" viewBox="0 0 32 32">
  <path d="M0,0h32v32H0V0Z" fill="none"/>
  <path d="M8.611,6.5h1.056c.583,0,1.056.473,1.056,1.056v2.111h3.167v-2.111c0-.583.473-1.056,1.056-1.056h2.111c.583,0,1.056.473,1.056,1.056v2.111h3.167v-2.111c0-.583.473-1.056,1.056-1.056h1.056c.583,0,1.056.473,1.056,1.056v4.638c0,.417-.123.825-.355,1.172l-1.402,2.103c-.231.347-.355.755-.355,1.172v7.805c0,.583-.473,1.056-1.056,1.056h-10.556c-.583,0-1.056-.473-1.056-1.056v-7.805c0-.417-.123-.825-.355-1.172l-1.402-2.103c-.231-.347-.355-.755-.355-1.172v-4.638c0-.583.473-1.056,1.056-1.056M13.889,25.5v-5.278c0-1.166.945-2.111,2.111-2.111s2.111.945,2.111,2.111v5.278" fill="none" stroke="#000" stroke-linecap="round" stroke-linejoin="round" stroke-width="1.5"/>
</svg>