<?xml version="1.0" encoding="UTF-8"?>
<svg id="kbc-s3-preview-iconset" xmlns="http://www.w3.org/2000/svg" width="32" height="32" viewBox="0 0 32 32">
  <rect width="32" height="32" fill="none"/>
  <g>
    <path d="M26.771,18.22l-8.543,8.51c-1.231,1.226-3.226,1.226-4.457,0l-8.543-8.51c-1.231-1.226-1.231-3.214,0-4.44L13.771,5.27c1.231-1.226,3.226-1.226,4.457,0l8.543,8.51c1.231,1.226,1.231,3.214,0,4.44Z"/>
    <g>
      <path d="M16.582,17.311h-2.591l-.016-1.571h4.362s-.016,5.21-.016,5.21l-1.432-.016-.209-1.267c-.419.888-1.513,1.523-2.916,1.491-2.946-.067-4.169-2.678-4.15-4.943.032-3.731,2.334-5.367,4.748-5.351,2.136.014,3.46,1.058,3.927,2.726l-1.69.561c-.338-.85-.876-1.486-2.281-1.486-1.717,0-2.756,1.294-2.756,3.41,0,2.348,1.159,3.399,2.591,3.383,2.365-.026,2.43-2.149,2.43-2.149Z" fill="#7fb927"/>
      <ellipse cx="21.249" cy="11.973" rx="1.138" ry="1.134" fill="#7fb927"/>
      <ellipse cx="21.232" cy="15.228" rx="1.138" ry="1.134" fill="#7fb927"/>
    </g>
  </g>
</svg>