<svg xmlns="http://www.w3.org/2000/svg" id="Ebene_2" data-name="Ebene 2" width="182.625" height="51.122" viewBox="0 0 182.625 51.122">
  <g id="kbc-s3-preview-iconset">
    <g id="Ebene_1-2" data-name="Ebene 1-2">
      <g>
        <path d="M105.855,42.281c-.896-1.162-2.189-1.905-3.641-2.092-1.454-.189-2.891.203-4.054,1.101-.536.413-.972.919-1.316,1.477-8.535-5.443-15.664-2.54-21.4-.197-4.271,1.745-7.656,3.123-10.229.483,1.464-1.386,2.716-3.045,3.665-4.952,2.262-4.546,2.364-9.602.728-14.025.988-.63,1.985-.699,2.95-.761,1.709-.109,3.323-.221,4.311-3.439.047.008.089.026.136.032.171.022.341.033.509.033,1.964,0,3.675-1.462,3.933-3.461.135-1.05-.147-2.091-.795-2.93-.648-.839-1.583-1.376-2.633-1.511-1.048-.133-2.09.147-2.93.795-.839.647-1.376,1.582-1.511,2.633-.253,1.964.989,3.77,2.836,4.304-.89,2.879-2.216,2.972-3.885,3.079-.954.061-2.028.137-3.092.786-1.559-3.892-4.476-7.256-8.515-9.266-7.015-3.49-15.252-1.869-20.48,3.422-.529-.531-4.309-4.271-9.07-7.593-6.867-4.791-12.406-6.483-16.47-5.039-.269-.771-.657-1.506-1.171-2.172C12.477,1.362,10.671.325,8.644.064,6.618-.197,4.608.349,2.985,1.6,1.362,2.852.324,4.658.063,6.684c-.54,4.191,2.43,8.04,6.621,8.581.331.042.659.063.985.063,3.794,0,7.099-2.825,7.596-6.685.133-1.035.053-2.065-.221-3.042,9.09-3.249,24.012,11.463,25.07,12.522-1.147,1.224-2.142,2.626-2.927,4.202-2.152,4.324-2.358,9.114-.965,13.379-1.494.483-3.058.777-4.574,1.055-3.695.678-7.187,1.325-9.788,4.552-.634-.438-1.355-.741-2.141-.842-2.68-.343-5.143,1.557-5.488,4.236-.345,2.68,1.556,5.142,4.235,5.488h0c.211.027.42.04.628.04,2.428,0,4.543-1.808,4.86-4.276.167-1.297-.183-2.583-.983-3.62-.217-.282-.465-.53-.73-.754,2.493-3.074,5.893-3.704,9.492-4.364,1.536-.282,3.12-.579,4.647-1.075,1.483,4.167,4.505,7.793,8.768,9.914,2.527,1.258,5.211,1.853,7.858,1.853,4.354,0,8.599-1.619,11.861-4.546,1.135,1.172,2.417,1.624,3.828,1.624,2.061,0,4.392-.953,6.927-1.988,5.642-2.306,12.655-5.162,21.002.176-.274.545-.476,1.129-.556,1.752-.187,1.452.204,2.892,1.1,4.054.896,1.163,2.19,1.905,3.642,2.093.237.03.473.046.705.046,2.717,0,5.083-2.023,5.44-4.787.187-1.452-.203-2.891-1.1-4.054ZM74.741,18.11c-.571-.741-.82-1.659-.701-2.585.119-.926.593-1.751,1.333-2.323.741-.571,1.654-.821,2.585-.701,1.914.246,3.27,2.004,3.024,3.919-.246,1.914-2.002,3.273-3.919,3.024-.926-.119-1.751-.593-2.323-1.334ZM14.802,8.585c-.507,3.935-4.122,6.722-8.058,6.217C2.809,14.295.02,10.68.527,6.744c.245-1.902,1.219-3.597,2.743-4.773,1.524-1.177,3.41-1.689,5.314-1.443,1.903.245,3.598,1.219,4.774,2.743,1.175,1.524,1.688,3.411,1.443,5.314ZM22.601,42.624c.725.939,1.04,2.102.889,3.274-.311,2.425-2.537,4.151-4.965,3.833h0c-2.425-.313-4.144-2.54-3.832-4.965s2.536-4.144,4.965-3.833c1.173.151,2.218.751,2.942,1.69ZM45.355,45.642c-8.505-4.234-11.982-14.6-7.75-23.107,4.234-8.506,14.599-11.98,23.107-7.749,8.506,4.234,11.983,14.599,7.75,23.106-4.234,8.507-14.597,11.983-23.107,7.75ZM106.491,46.274c-.354,2.746-2.876,4.699-5.622,4.338-1.329-.171-2.512-.851-3.333-1.915-.82-1.063-1.177-2.38-1.006-3.708.082-.633.286-1.23.586-1.774,0-.001.002,0,.003-.002.002-.002,0-.005.001-.008.328-.592.771-1.12,1.324-1.547.89-.686,1.956-1.049,3.058-1.049.216,0,.433.014.651.042,1.329.172,2.511.851,3.332,1.914s1.177,2.38,1.006,3.708Z" fill="#fff" opacity=".75"/>
      </g>
    </g>
  </g>
</svg>
