<svg xmlns="http://www.w3.org/2000/svg" id="Ebene_2" data-name="Ebene 2" width="182.625" height="51.122" viewBox="0 0 182.625 51.122">
  <g id="kbc-s3-preview-iconset">
    <g id="Ebene_1-2" data-name="Ebene 1-2">
      <g>
        <path d="M105.855,42.281c-.896-1.162-2.189-1.905-3.641-2.092-1.454-.189-2.891.203-4.054,1.101-.536.413-.972.919-1.316,1.477-8.535-5.443-15.664-2.54-21.4-.197-4.271,1.745-7.656,3.123-10.229.483,1.464-1.386,2.716-3.045,3.665-4.952,2.262-4.546,2.364-9.602.728-14.025.988-.63,1.985-.699,2.95-.761,1.709-.109,3.323-.221,4.311-3.439.047.008.089.026.136.032.171.022.341.033.509.033,1.964,0,3.675-1.462,3.933-3.461.135-1.05-.147-2.091-.795-2.93-.648-.839-1.583-1.376-2.633-1.511-1.048-.133-2.09.147-2.93.795-.839.647-1.376,1.582-1.511,2.633-.253,1.964.989,3.77,2.836,4.304-.89,2.879-2.216,2.972-3.885,3.079-.954.061-2.028.137-3.092.786-1.559-3.892-4.476-7.256-8.515-9.266-7.015-3.49-15.252-1.869-20.48,3.422-.529-.531-4.309-4.271-9.07-7.593-6.867-4.791-12.406-6.483-16.47-5.039-.269-.771-.657-1.506-1.171-2.172C12.477,1.362,10.671.325,8.644.064,6.618-.197,4.608.349,2.985,1.6,1.362,2.852.324,4.658.063,6.684c-.54,4.191,2.43,8.04,6.621,8.581.331.042.659.063.985.063,3.794,0,7.099-2.825,7.596-6.685.133-1.035.053-2.065-.221-3.042,9.09-3.249,24.012,11.463,25.07,12.522-1.147,1.224-2.142,2.626-2.927,4.202-2.152,4.324-2.358,9.114-.965,13.379-1.494.483-3.058.777-4.574,1.055-3.695.678-7.187,1.325-9.788,4.552-.634-.438-1.355-.741-2.141-.842-2.68-.343-5.143,1.557-5.488,4.236-.345,2.68,1.556,5.142,4.235,5.488h0c.211.027.42.04.628.04,2.428,0,4.543-1.808,4.86-4.276.167-1.297-.183-2.583-.983-3.62-.217-.282-.465-.53-.73-.754,2.493-3.074,5.893-3.704,9.492-4.364,1.536-.282,3.12-.579,4.647-1.075,1.483,4.167,4.505,7.793,8.768,9.914,2.527,1.258,5.211,1.853,7.858,1.853,4.354,0,8.599-1.619,11.861-4.546,1.135,1.172,2.417,1.624,3.828,1.624,2.061,0,4.392-.953,6.927-1.988,5.642-2.306,12.655-5.162,21.002.176-.274.545-.476,1.129-.556,1.752-.187,1.452.204,2.892,1.1,4.054.896,1.163,2.19,1.905,3.642,2.093.237.03.473.046.705.046,2.717,0,5.083-2.023,5.44-4.787.187-1.452-.203-2.891-1.1-4.054ZM74.741,18.11c-.571-.741-.82-1.659-.701-2.585.119-.926.593-1.751,1.333-2.323.741-.571,1.654-.821,2.585-.701,1.914.246,3.27,2.004,3.024,3.919-.246,1.914-2.002,3.273-3.919,3.024-.926-.119-1.751-.593-2.323-1.334ZM14.802,8.585c-.507,3.935-4.122,6.722-8.058,6.217C2.809,14.295.02,10.68.527,6.744c.245-1.902,1.219-3.597,2.743-4.773,1.524-1.177,3.41-1.689,5.314-1.443,1.903.245,3.598,1.219,4.774,2.743,1.175,1.524,1.688,3.411,1.443,5.314ZM22.601,42.624c.725.939,1.04,2.102.889,3.274-.311,2.425-2.537,4.151-4.965,3.833h0c-2.425-.313-4.144-2.54-3.832-4.965s2.536-4.144,4.965-3.833c1.173.151,2.218.751,2.942,1.69ZM45.355,45.642c-8.505-4.234-11.982-14.6-7.75-23.107,4.234-8.506,14.599-11.98,23.107-7.749,8.506,4.234,11.983,14.599,7.75,23.106-4.234,8.507-14.597,11.983-23.107,7.75ZM106.491,46.274c-.354,2.746-2.876,4.699-5.622,4.338-1.329-.171-2.512-.851-3.333-1.915-.82-1.063-1.177-2.38-1.006-3.708.082-.633.286-1.23.586-1.774,0-.001.002,0,.003-.002.002-.002,0-.005.001-.008.328-.592.771-1.12,1.324-1.547.89-.686,1.956-1.049,3.058-1.049.216,0,.433.014.651.042,1.329.172,2.511.851,3.332,1.914s1.177,2.38,1.006,3.708Z" fill="#fff" opacity=".75"/>
        </g>
    </g>
    <g>
      <path d="M104.606,16.846c-.485-.502-1.111-.939-1.875-1.312-.764-.372-1.683-.672-2.756-.899l-1.591-.341c-.461-.095-.859-.202-1.193-.322-.335-.12-.609-.254-.824-.402s-.371-.316-.469-.502c-.098-.187-.141-.396-.128-.63.006-.284.092-.537.256-.758.164-.221.418-.396.763-.525.344-.129.787-.194,1.33-.194.853,0,1.488.177,1.908.53.42.354.655.846.706,1.478h5.038c-.006-1.269-.32-2.378-.942-3.329-.622-.95-1.504-1.687-2.646-2.211-1.144-.524-2.497-.786-4.063-.786-1.534,0-2.893.259-4.077.777s-2.108,1.239-2.774,2.164c-.667.925-.996,2.003-.99,3.234-.006,1.515.484,2.71,1.473,3.584s2.341,1.498,4.058,1.871l1.932.417c.72.158,1.291.327,1.715.507.423.18.728.382.914.606.186.225.282.485.288.782-.006.315-.107.597-.303.843s-.483.439-.862.578c-.378.139-.849.208-1.411.208-.669,0-1.245-.104-1.728-.312-.483-.208-.857-.515-1.123-.919-.265-.404-.413-.903-.445-1.496h-5c.006,1.623.355,2.953,1.046,3.992.691,1.038,1.664,1.808,2.918,2.307,1.253.498,2.722.748,4.408.748,1.642,0,3.048-.23,4.22-.691,1.171-.461,2.072-1.134,2.703-2.018.632-.884.95-1.964.957-3.239-.007-.739-.125-1.421-.355-2.046s-.589-1.188-1.075-1.69Z" fill="#fff" stroke="#000" stroke-miterlimit="10" stroke-width=".25"/>
      <path d="M115.371,11.869c.609-.429,1.355-.644,2.24-.644.505,0,.956.071,1.354.213.398.142.737.344,1.019.606s.502.573.663.933.26.761.298,1.203h5.342c-.101-1.206-.389-2.276-.862-3.211-.473-.934-1.099-1.722-1.875-2.363-.776-.641-1.68-1.128-2.708-1.463-1.029-.334-2.156-.502-3.382-.502-1.742,0-3.321.38-4.735,1.142-1.414.761-2.538,1.881-3.371,3.362-.834,1.481-1.25,3.301-1.25,5.46,0,2.147.408,3.962,1.226,5.446.818,1.484,1.933,2.608,3.344,3.372s3.007,1.146,4.787,1.146c1.421,0,2.668-.219,3.741-.654s1.975-1.012,2.704-1.729,1.293-1.499,1.69-2.349c.397-.849.628-1.685.691-2.505l-5.342-.038c-.062.417-.185.791-.364,1.122s-.412.614-.696.848c-.284.234-.619.412-1.004.535s-.82.185-1.307.185c-.853,0-1.582-.2-2.188-.601-.605-.401-1.068-1.001-1.387-1.8-.319-.798-.479-1.792-.479-2.979,0-1.124.156-2.086.469-2.889.312-.802.773-1.417,1.383-1.847Z" fill="#fff" stroke="#000" stroke-miterlimit="10" stroke-width=".25"/>
      <rect x="129.5" y="7.061" width="5.266" height="19.397" fill="#fff" stroke="#000" stroke-miterlimit="10" stroke-width=".25"/>
      <polygon points="149.789 18.048 149.562 18.048 145.054 7.061 138.5 7.061 138.5 26.458 143.652 26.458 143.652 15.169 143.804 15.169 148.122 26.307 151.228 26.307 155.548 15.245 155.699 15.245 155.699 26.458 160.851 26.458 160.851 7.061 154.298 7.061 149.789 18.048" fill="#fff" stroke="#000" stroke-miterlimit="10" stroke-width=".25"/>
      <path d="M181.335,17.774c-.789-.786-1.967-1.265-3.532-1.435v-.151c1.155-.126,2.11-.537,2.865-1.231.754-.694,1.125-1.584,1.112-2.671.007-1.092-.302-2.063-.923-2.912-.622-.849-1.484-1.517-2.586-2.003s-2.369-.729-3.803-.729c-1.465,0-2.762.259-3.893.777-1.13.518-2.019,1.231-2.666,2.14s-.974,1.958-.979,3.145h5.038c.006-.392.117-.739.331-1.042.215-.303.51-.54.886-.71.376-.171.804-.256,1.283-.256.442,0,.832.082,1.17.246.338.165.602.392.791.682s.28.625.274,1.004c.006.392-.103.739-.327,1.042-.224.303-.536.54-.938.71-.4.17-.863.256-1.387.256h-1.971v3.637h1.971c.567,0,1.069.085,1.506.256.436.17.774.407,1.018.71.243.303.361.65.355,1.042.006.398-.095.751-.304,1.061-.208.31-.498.551-.871.725-.372.174-.802.261-1.288.261-.505,0-.953-.082-1.345-.247-.392-.164-.699-.393-.923-.687-.225-.293-.34-.626-.346-.999h-5.304c.006,1.206.347,2.273,1.022,3.201s1.605,1.656,2.789,2.184,2.54.791,4.067.791c1.585,0,2.985-.25,4.201-.749,1.215-.498,2.165-1.187,2.851-2.064.685-.878,1.024-1.885,1.018-3.021.013-1.187-.375-2.173-1.165-2.959Z" fill="#fff" stroke="#000" stroke-miterlimit="10" stroke-width=".25"/>
    </g>
    <path d="M91.876,30.784c-.107.123-.174.263-.201.419-.019.115-.01.216.026.303s.091.161.165.223c.074.062.159.114.255.159.096.044.193.08.293.11l.441.132c.131.039.261.088.39.147.129.06.244.135.345.225.101.09.176.2.225.33s.059.286.029.468c-.04.236-.135.446-.285.632s-.346.332-.588.44c-.242.107-.523.161-.843.161-.297,0-.547-.049-.75-.147s-.353-.235-.45-.41-.133-.377-.111-.607h.409c-.014.172.019.317.098.437s.194.21.344.271c.15.062.323.093.519.093.217,0,.417-.036.599-.109.182-.073.332-.176.451-.307.119-.132.192-.285.221-.459.025-.148.008-.272-.052-.373-.061-.102-.153-.186-.279-.255-.125-.069-.275-.129-.448-.18l-.499-.153c-.325-.103-.567-.244-.726-.424s-.215-.409-.169-.688c.04-.236.137-.443.292-.621.155-.179.348-.317.58-.417s.482-.149.752-.149c.271,0,.502.051.694.15.191.101.333.239.426.417.093.178.127.381.102.609h-.386c.01-.256-.066-.456-.227-.602-.161-.145-.387-.217-.676-.217-.204,0-.388.035-.554.104s-.303.166-.41.288ZM97.473,32.035c.044.201.043.438-.003.713l-.032.188h-2.438c-.041.268-.036.496.019.68.056.188.159.328.308.423.149.095.339.142.573.142.156,0,.298-.024.424-.072.127-.048.237-.113.331-.195.094-.081.169-.171.226-.27l.339.117c-.072.138-.175.266-.306.382-.132.116-.287.21-.467.28s-.38.105-.601.105c-.305,0-.557-.071-.756-.214-.199-.144-.338-.342-.417-.595-.08-.254-.092-.546-.036-.877.055-.329.165-.622.328-.879.163-.257.365-.457.604-.603.239-.146.5-.219.783-.219.178,0,.343.032.497.097s.286.163.396.296.186.3.229.501ZM97.076,32.033c-.056-.168-.149-.302-.281-.399-.133-.098-.297-.147-.494-.147-.201,0-.39.057-.567.17-.178.112-.328.259-.452.438-.11.159-.18.329-.22.507h2.042c.037-.21.027-.399-.027-.567ZM100.495,31.281c-.151-.092-.337-.138-.556-.138-.24,0-.45.051-.632.152-.181.102-.322.236-.425.404h-.034l.085-.514h-.368l-.546,3.272h.38l.339-2.046c.032-.189.1-.354.2-.493.101-.138.225-.244.372-.318.146-.073.307-.11.48-.11.251,0,.438.078.559.235.122.157.16.369.116.636l-.35,2.097h.38l.355-2.12c.043-.259.031-.477-.033-.654s-.172-.312-.323-.403ZM102.512,31.635c.16-.106.352-.16.576-.16.146,0,.266.023.357.069.092.047.161.109.21.188.048.079.082.168.102.268l.364-.096c-.042-.237-.142-.424-.299-.56s-.386-.203-.688-.203c-.219,0-.42.039-.604.116s-.338.185-.458.32c-.121.137-.196.294-.227.474-.037.22,0,.404.114.553s.307.257.581.327l.509.128c.175.042.298.107.371.195.072.088.097.198.074.33-.027.172-.126.315-.297.43-.172.114-.384.172-.637.172-.223,0-.395-.05-.516-.149-.12-.1-.187-.246-.198-.438l-.381.085c.014.272.113.481.297.626.185.146.437.218.758.218.24,0,.458-.041.653-.122.195-.08.355-.192.481-.334.125-.143.203-.306.233-.49.036-.22-.002-.403-.115-.549-.114-.146-.302-.252-.564-.32l-.478-.121c-.193-.05-.331-.119-.412-.206-.082-.087-.111-.2-.089-.338.027-.167.12-.305.28-.411ZM106.86,33.207c-.033.2-.104.369-.215.506-.109.138-.238.241-.387.312-.147.071-.295.106-.443.106-.235,0-.416-.077-.541-.233-.125-.155-.167-.361-.125-.616l.349-2.097h-.379l-.355,2.12c-.043.258-.033.477.029.653.062.178.167.312.314.404s.325.138.534.138c.239,0,.453-.056.64-.168.187-.111.331-.251.434-.418h.03l-.092.543h.379l.546-3.272h-.38l-.338,2.021ZM109.049,31.635c.16-.106.352-.16.576-.16.146,0,.266.023.357.069.092.047.161.109.21.188.048.079.082.168.102.268l.364-.096c-.042-.237-.142-.424-.299-.56s-.386-.203-.688-.203c-.219,0-.42.039-.604.116s-.338.185-.458.32c-.121.137-.196.294-.227.474-.037.22,0,.404.114.553s.307.257.581.327l.509.128c.175.042.298.107.371.195.072.088.097.198.074.33-.027.172-.126.315-.297.43-.172.114-.384.172-.637.172-.223,0-.395-.05-.516-.149-.12-.1-.187-.246-.198-.438l-.381.085c.014.272.113.481.297.626.185.146.437.218.758.218.24,0,.458-.041.653-.122.195-.08.355-.192.481-.334.125-.143.203-.306.233-.49.036-.22-.002-.403-.115-.549-.114-.146-.302-.252-.564-.32l-.478-.121c-.193-.05-.331-.119-.412-.206-.082-.087-.111-.2-.089-.338.027-.167.12-.305.28-.411ZM113.8,31.269c.184-.281.401-.495.655-.641.253-.146.521-.218.8-.218.169,0,.322.025.459.078.138.053.256.127.355.222.099.096.177.206.231.334.056.127.086.265.09.414h.396c-.003-.202-.039-.389-.108-.561-.07-.172-.17-.322-.3-.452-.13-.131-.287-.231-.472-.303-.185-.072-.394-.107-.627-.107-.365,0-.703.091-1.014.272-.312.182-.574.438-.787.771-.214.331-.358.723-.434,1.175-.077.46-.062.859.045,1.198.107.339.29.602.547.787.257.187.57.279.939.279.23,0,.447-.036.651-.108s.39-.174.56-.303c.169-.129.316-.28.441-.453.126-.172.224-.358.293-.559h-.4c-.056.148-.133.287-.233.415-.1.128-.217.239-.351.334-.133.094-.28.168-.439.22-.16.053-.326.079-.5.079-.272,0-.509-.07-.709-.211-.201-.141-.345-.348-.433-.621-.089-.273-.099-.61-.032-1.011.066-.406.191-.75.375-1.031ZM120.088,31.967c.082.259.096.558.041.897-.054.328-.161.617-.323.866s-.36.444-.596.585-.492.211-.771.211c-.287,0-.528-.073-.725-.219-.195-.146-.334-.347-.415-.604s-.095-.557-.04-.895c.054-.331.161-.621.321-.872s.359-.446.596-.586.493-.21.771-.21c.288,0,.529.073.725.22.195.146.334.349.416.606ZM119.748,32.149c-.047-.2-.137-.361-.271-.481-.134-.121-.312-.182-.533-.182-.229,0-.438.063-.622.188-.185.126-.336.294-.455.503-.118.21-.197.438-.237.688-.04.24-.036.46.01.658.046.199.137.358.271.478.135.119.312.179.534.179.232,0,.44-.062.623-.187.183-.124.333-.29.452-.497.12-.208.199-.437.239-.687.04-.24.036-.46-.011-.66ZM122.544,31.137c-.206,0-.399.051-.581.152-.181.102-.316.234-.407.399h-.028l.085-.503h-.368l-.546,3.272h.38l.35-2.113c.026-.162.089-.307.188-.433.098-.127.219-.226.363-.298.144-.071.301-.107.472-.107.051,0,.098.003.14.009s.071.01.088.013l.066-.386c-.027-.003-.059-.005-.096-.005-.037,0-.072,0-.104,0ZM125.785,32.035c.044.201.043.438-.003.713l-.032.188h-2.439c-.041.268-.035.496.02.68.056.188.159.328.308.423.149.095.341.142.573.142.156,0,.298-.024.424-.072.127-.048.237-.113.331-.195.094-.081.169-.171.226-.27l.339.117c-.072.138-.175.266-.306.382-.132.116-.287.21-.467.28s-.38.105-.6.105c-.306,0-.558-.071-.757-.214-.199-.144-.338-.342-.418-.595-.079-.254-.091-.546-.036-.877.056-.329.165-.622.328-.879.164-.257.365-.457.604-.603.239-.146.5-.219.783-.219.178,0,.343.032.497.097s.286.163.396.296.186.3.229.501ZM125.389,32.033c-.056-.168-.149-.302-.281-.399-.133-.098-.297-.147-.495-.147-.2,0-.389.057-.566.17-.178.112-.328.259-.452.438-.11.159-.179.329-.219.507h2.042c.037-.21.027-.399-.027-.567ZM128.098,34.458h.398l.725-4.363h-.398l-.725,4.363ZM132.052,31.281c-.151-.092-.337-.138-.556-.138-.24,0-.45.051-.632.152-.181.102-.322.236-.425.404h-.034l.085-.514h-.368l-.546,3.272h.38l.339-2.046c.032-.189.1-.354.2-.493.101-.138.225-.244.372-.318.146-.073.307-.11.48-.11.251,0,.438.078.559.235.122.157.16.369.116.636l-.35,2.097h.38l.355-2.12c.043-.259.031-.477-.033-.654s-.172-.312-.323-.403ZM134.324,30.402h-.382l-.129.784h-.486l-.054.33h.485l-.359,2.178c-.028.179-.012.328.049.449.062.121.15.212.269.272.118.062.246.092.386.092.079,0,.147-.006.204-.018.058-.013.106-.025.147-.04l-.027-.343c-.029.007-.062.014-.098.021-.036.006-.078.01-.127.01-.086,0-.165-.017-.235-.049-.07-.031-.122-.086-.156-.164-.034-.077-.04-.184-.017-.32l.346-2.088h.695l.054-.33h-.694l.13-.784ZM138.144,32.035c.044.201.043.438-.003.713l-.032.188h-2.439c-.041.268-.035.496.02.68.056.188.159.328.308.423.149.095.341.142.573.142.156,0,.298-.024.424-.072.127-.048.237-.113.331-.195.094-.081.169-.171.226-.27l.339.117c-.072.138-.175.266-.306.382-.132.116-.287.21-.467.28s-.38.105-.6.105c-.306,0-.558-.071-.757-.214-.199-.144-.338-.342-.418-.595-.079-.254-.091-.546-.036-.877.056-.329.165-.622.328-.879.164-.257.365-.457.604-.603.239-.146.5-.219.783-.219.178,0,.343.032.497.097s.286.163.396.296.186.3.229.501ZM137.748,32.033c-.056-.168-.149-.302-.281-.399-.133-.098-.297-.147-.495-.147-.2,0-.389.057-.566.17-.178.112-.328.259-.452.438-.11.159-.179.329-.219.507h2.042c.037-.21.027-.399-.027-.567ZM141.466,31.186h.371l-.554,3.357c-.047.277-.144.505-.29.685-.146.179-.328.312-.546.397-.217.086-.454.129-.711.129-.224,0-.414-.029-.573-.087s-.289-.136-.388-.235c-.1-.1-.172-.211-.216-.334l.346-.203c.032.083.08.164.144.243s.153.146.27.197.27.077.458.077c.288,0,.536-.072.743-.217.208-.145.337-.37.389-.676l.114-.737h-.034c-.058.1-.137.199-.235.298s-.22.181-.363.246-.312.098-.509.098c-.262,0-.482-.064-.664-.193-.181-.13-.31-.314-.386-.556-.075-.24-.085-.528-.028-.861.054-.331.158-.622.312-.874.153-.251.344-.447.57-.588s.475-.211.745-.211c.2,0,.36.035.481.105s.212.157.274.261.109.205.139.303h.038l.103-.624ZM141.187,32.126c-.047-.198-.137-.354-.267-.469-.131-.114-.304-.172-.519-.172-.219,0-.412.06-.58.177-.168.118-.307.277-.416.477-.108.199-.183.422-.223.668-.041.25-.04.471.004.662.043.19.129.34.259.447.129.107.303.16.52.16.209,0,.397-.051.567-.152.169-.102.311-.247.425-.438s.193-.417.237-.68c.043-.256.04-.482-.008-.681ZM144.142,31.137c-.206,0-.399.051-.581.152-.181.102-.316.234-.407.399h-.028l.085-.503h-.368l-.546,3.272h.38l.35-2.113c.026-.162.089-.307.188-.433.098-.127.219-.226.363-.298.144-.071.301-.107.472-.107.051,0,.098.003.14.009s.071.01.088.013l.066-.386c-.027-.003-.059-.005-.096-.005-.037,0-.072,0-.104,0ZM147.125,31.694c.049.143.055.323.018.542l-.369,2.223h-.379l.087-.518h-.023c-.06.097-.142.19-.247.281-.104.091-.229.165-.374.224-.144.059-.307.087-.488.087-.197,0-.372-.038-.522-.116-.15-.077-.263-.189-.335-.336-.073-.147-.093-.326-.059-.536.028-.162.082-.298.161-.409.08-.11.182-.202.305-.273.124-.072.266-.129.427-.17.16-.041.334-.072.521-.094.187-.022.345-.043.475-.061s.231-.045.306-.082c.073-.037.118-.096.132-.177l.011-.077c.037-.221.003-.396-.103-.525-.104-.13-.281-.194-.53-.194-.234,0-.438.052-.61.156s-.301.227-.385.366l-.334-.131c.102-.179.228-.321.376-.429s.308-.185.478-.232c.171-.048.339-.071.506-.071.125,0,.252.017.382.049.13.033.247.089.35.17.103.08.179.191.227.334ZM146.683,32.731c-.033.026-.085.051-.155.072s-.148.04-.236.057c-.087.016-.175.029-.262.041-.088.012-.165.021-.233.03-.188.022-.351.058-.49.106-.139.048-.251.114-.336.199-.084.084-.137.192-.158.324-.033.199.011.354.131.462s.287.163.502.163c.201,0,.385-.045.549-.135.164-.089.299-.208.405-.356s.175-.312.203-.491l.081-.473ZM149.051,30.402h-.382l-.129.784h-.486l-.054.33h.485l-.359,2.178c-.028.179-.012.328.049.449.062.121.15.212.269.272.118.062.246.092.386.092.079,0,.147-.006.204-.018.058-.013.106-.025.147-.04l-.027-.343c-.029.007-.062.014-.098.021-.036.006-.078.01-.127.01-.086,0-.165-.017-.235-.049-.07-.031-.122-.086-.156-.164-.034-.077-.04-.184-.017-.32l.346-2.088h.695l.054-.33h-.694l.13-.784ZM150.815,30.072c-.075,0-.142.026-.198.078-.057.053-.086.116-.087.19-.003.076.022.142.077.195.055.055.122.081.201.081.077,0,.144-.025.199-.077.057-.053.086-.115.089-.189,0-.076-.025-.142-.08-.196s-.122-.082-.201-.082ZM149.935,34.458h.381l.546-3.272h-.382l-.545,3.272ZM154.258,31.967c.082.259.096.558.041.897-.054.328-.161.617-.323.866s-.36.444-.596.585-.492.211-.771.211c-.287,0-.528-.073-.725-.219-.195-.146-.334-.347-.415-.604s-.095-.557-.04-.895c.054-.331.161-.621.321-.872s.359-.446.596-.586.493-.21.771-.21c.288,0,.529.073.725.22.195.146.334.349.416.606ZM153.918,32.149c-.047-.2-.137-.361-.271-.481-.134-.121-.312-.182-.533-.182-.229,0-.438.063-.622.188-.185.126-.336.294-.455.503-.118.21-.197.438-.237.688-.04.24-.036.46.01.658.046.199.137.358.271.478.135.119.312.179.534.179.232,0,.44-.062.623-.187.183-.124.333-.29.452-.497.12-.208.199-.437.239-.687.04-.24.036-.46-.011-.66ZM157.343,31.281c-.151-.092-.337-.138-.556-.138-.24,0-.45.051-.632.152-.181.102-.322.236-.425.404h-.034l.085-.514h-.368l-.546,3.272h.38l.339-2.046c.032-.189.1-.354.2-.493.101-.138.225-.244.372-.318.146-.073.307-.11.48-.11.251,0,.438.078.559.235.122.157.16.369.116.636l-.35,2.097h.38l.355-2.12c.043-.259.031-.477-.033-.654s-.172-.312-.323-.403ZM162.289,33.896h-.038l-.955-3.801h-.46l-.725,4.363h.375l.588-3.522h.034l.885,3.522h.362l2.06-3.522h.034l-.588,3.522h.375l.725-4.363h-.46l-2.212,3.801ZM168.252,31.967c.082.259.096.558.041.897-.054.328-.161.617-.323.866s-.36.444-.596.585-.492.211-.771.211c-.287,0-.528-.073-.725-.219-.195-.146-.334-.347-.415-.604s-.095-.557-.04-.895c.054-.331.161-.621.321-.872s.359-.446.596-.586.493-.21.771-.21c.288,0,.529.073.725.22.195.146.334.349.416.606ZM167.912,32.149c-.047-.2-.137-.361-.271-.481-.134-.121-.312-.182-.533-.182-.229,0-.438.063-.622.188-.185.126-.336.294-.455.503-.118.21-.197.438-.237.688-.04.24-.036.46.01.658.046.199.137.358.271.478.135.119.312.179.534.179.232,0,.44-.062.623-.187.183-.124.333-.29.452-.497.12-.208.199-.437.239-.687.04-.24.036-.46-.011-.66ZM171.807,30.095h.381l-.725,4.363h-.37l.103-.607h-.045c-.06.1-.139.201-.238.306-.099.104-.22.192-.364.264-.144.07-.315.106-.515.106-.268,0-.492-.071-.671-.213-.179-.143-.304-.341-.375-.595s-.079-.551-.023-.889c.057-.337.163-.632.318-.885.156-.254.347-.451.573-.593s.475-.212.743-.212c.2,0,.36.035.48.105s.211.157.273.261.107.205.134.303h.034l.286-1.715ZM171.357,32.13c-.046-.2-.134-.358-.265-.473s-.304-.172-.518-.172c-.218,0-.411.06-.58.179-.169.118-.309.278-.419.48-.109.201-.186.428-.227.68-.043.254-.043.483-.002.688.041.205.125.367.252.487.128.12.3.18.518.18.211,0,.402-.058.574-.174.171-.115.314-.275.43-.479.116-.203.196-.438.24-.701.044-.262.043-.493-.004-.694ZM175.484,32.035c.044.201.043.438-.003.713l-.032.188h-2.439c-.041.268-.035.496.02.68.056.188.159.328.308.423.149.095.341.142.573.142.156,0,.298-.024.424-.072.127-.048.237-.113.331-.195.094-.081.169-.171.226-.27l.339.117c-.072.138-.175.266-.306.382-.132.116-.287.21-.467.28s-.38.105-.6.105c-.306,0-.558-.071-.757-.214-.199-.144-.338-.342-.418-.595-.079-.254-.091-.546-.036-.877.056-.329.165-.622.328-.879.164-.257.365-.457.604-.603.239-.146.5-.219.783-.219.178,0,.343.032.497.097s.286.163.396.296.186.3.229.501ZM175.088,32.033c-.056-.168-.149-.302-.281-.399-.133-.098-.297-.147-.495-.147-.2,0-.389.057-.566.17-.178.112-.328.259-.452.438-.11.159-.179.329-.219.507h2.042c.037-.21.027-.399-.027-.567ZM176.031,34.458h.38l.725-4.363h-.38l-.725,4.363ZM181.996,31.833c.166-.172.268-.38.307-.624.034-.212.014-.406-.062-.584-.075-.178-.198-.32-.37-.429-.172-.107-.389-.161-.65-.161-.238,0-.464.049-.677.146-.214.098-.393.233-.538.406-.146.172-.239.371-.28.598h.386c.029-.164.099-.305.208-.424.109-.12.242-.212.398-.277s.32-.098.49-.098c.177,0,.322.033.438.101.114.067.196.161.243.28.048.119.059.257.031.411-.027.175-.094.326-.2.454s-.239.228-.398.298c-.159.071-.333.106-.522.106h-.245l-.057.358h.262c.231,0,.423.037.575.11.152.074.261.177.326.309.065.131.085.282.06.452-.028.178-.101.334-.215.468-.115.135-.259.239-.431.313s-.357.112-.557.112c-.188,0-.348-.033-.482-.1-.134-.066-.234-.158-.3-.278-.066-.119-.09-.258-.069-.415h-.396c-.033.228,0,.428.096.601.097.174.244.309.443.405.198.097.433.145.703.145.276,0,.528-.051.754-.151s.413-.241.561-.422.241-.391.279-.631c.045-.276.005-.515-.122-.712-.126-.198-.324-.326-.594-.383v-.021c.238-.071.44-.192.607-.364Z" fill="#fff" opacity=".75"/>
  </g>
</svg>