<?xml version="1.0" encoding="UTF-8"?>
<svg id="Ebene_2" data-name="Ebene 2" xmlns="http://www.w3.org/2000/svg" width="24" height="24" viewBox="0 0 24 24">
  <g id="kbc-s3-preview-iconset">
    <rect width="24" height="24" fill="none"/>
    <g>
      <path d="M11.616,6.859l2.493-2.859,6.459,1.612-2.604,3.628M8.442,8.05l3.174-1.19,6.349,2.381v6.349l-6.349,2.381-6.349-2.381v-6.349M17.964,9.24l-6.349,2.381M5.267,9.24l-2.267-2.381,7.151,1.708,1.465,3.053-6.349-2.381M11.616,11.621v6.349" fill="#fff" stroke="#000" stroke-linecap="round" stroke-linejoin="round" stroke-width=".9"/>
      <path d="M20.568,11.139c.432,1.428-1.597,1.571-2.533,1.607M7.813,14.636c0-.94-5.369-.691-4.531-2.069M21,17.791c-11.373,2.116.584,4.435-6.056-.794M8.265,16.998c-.232,1.587-5.681.537-3.905,1.587,1.974,1.167,2.333,0,2.333,0l1.572.92M11.616,6.682l.025,1.433,3.989,1.571M10.283,8.666l1.357-.551" fill="none" stroke="#000" stroke-linecap="round" stroke-linejoin="round" stroke-width=".6"/>
      <path d="M11.616,11.443v6.349l-6.349-2.381v-6.349l6.349,2.381M5.267,9.062l-2.267-2.381,7.151,1.708,1.465,3.053-6.349-2.381"/>
    </g>
  </g>
</svg>