<?xml version="1.0" encoding="UTF-8"?>
<svg id="kbc-s3-preview-iconset" xmlns="http://www.w3.org/2000/svg" width="28" height="28" viewBox="0 0 28 28">
  <g>
    <g>
      <g>
        <polygon points="13.68 13.654 7.742 15.898 13.68 18.142 13.68 24.126 19.619 21.882 19.619 15.898 13.68 13.654" fill="#fff"/>
        <path d="M19.619,15.898l-5.939,2.244M13.68,18.142l-5.939-2.244v5.984l5.939,2.244v-5.984M13.68,13.654l-5.939,2.244v5.984l5.939,2.244,5.939-2.244v-5.984l-5.939-2.244Z" fill="none" stroke="#000" stroke-linecap="round" stroke-linejoin="round" stroke-width="1.167"/>
      </g>
      <g>
        <polygon points="13.718 3.874 5.27 7.067 13.718 10.259 13.718 18.772 22.167 15.58 22.167 7.067 13.718 3.874" fill="#fff"/>
        <path d="M22.167,7.067l-8.448,3.192M13.718,10.259l-8.448-3.192v8.513l8.448,3.192v-8.513M13.718,3.874l-8.448,3.192v8.513l8.448,3.192,8.448-3.192V7.067l-8.448-3.192Z" fill="none" stroke="#000" stroke-linecap="round" stroke-linejoin="round" stroke-width="1.167"/>
        <path d="M18.282,7.695l-3.513-1.105,3.328-1.224c.235-.086.356-.348.27-.584-.084-.236-.342-.358-.58-.272l-4.442,1.632-4.462-1.403c-.24-.079-.494.058-.567.299-.074.24.058.496.297.571l3.331,1.048-2.84,1.045c-.062.023-.115.059-.16.103l-3.463-1.308c-.312-.116-.661.04-.777.356-.117.315.041.665.353.783l.212.08v7.863l3.593,1.358c-.033.063-.056.132-.056.208v.562c0,.252.203.456.453.456s.453-.204.453-.456v-.45l3.403,1.286v.228c0,.336.27.608.603.608s.603-.272.603-.608v-8.513s-.002-.008-.002-.012c0-.047-.016-.091-.027-.137-.008-.032-.01-.066-.023-.096-.015-.034-.04-.06-.061-.091-.023-.034-.041-.071-.07-.099-.022-.022-.052-.035-.078-.053-.039-.028-.075-.057-.12-.075-.004-.002-.006-.005-.011-.007l-3.743-1.415,3.181-1.169,4.326,1.36v9.242c0,.252.203.456.453.456s.453-.204.453-.456v-9.577c0-.2-.128-.376-.318-.435Z"/>
      </g>
    </g>
    <polygon points="7.742 21.882 7.742 16.513 13.718 18.772 13.68 24.126 7.742 21.882"/>
    <polyline points="18.145 17.791 17.173 23.832 15.739 23.433" fill="none" stroke="#000" stroke-linecap="round" stroke-linejoin="round" stroke-width=".875"/>
    <polyline points="10.711 23.267 9.912 23.63 9.498 21.919" fill="none" stroke="#000" stroke-linecap="round" stroke-linejoin="round" stroke-width=".875"/>
  </g>
  <path d="M0,0h28v28H0V0Z" fill="none"/>
</svg>