<?xml version="1.0" encoding="UTF-8"?>
<svg id="kbc-s3-preview-iconset" xmlns="http://www.w3.org/2000/svg" width="32" height="32" viewBox="0 0 32 32">
  <g>
    <polygon points="23 23.5 21.478 23.5 20.565 16.5 22 16.5 22 14.5 20.304 14.5 19.522 8.5 20.5 8.5 20.5 6.5 19.261 6.5 19 4.5 13 4.5 12.739 6.5 11.5 6.5 11.5 8.5 12.478 8.5 11.696 14.5 10 14.5 10 16.5 11.435 16.5 10.522 23.5 9 23.5 9 25.5 10.261 25.5 10 27.5 22 27.5 21.739 25.5 23 25.5 23 23.5" fill="#ffe2b0"/>
    <path d="M18,16.5l.5,5.5M21.478,23.5l-.913-7M11.435,16.5l-.913,7M20.304,14.5l-.783-6M10.261,25.5l-.261,2h12l-.261-2M19.261,6.5l-.261-2h-6l-.261,2M20.5,8.5h-9v-2h9v2ZM22,14.5h-12v2h12v-2ZM23,23.5h-14v2h14v-2ZM17.5,8.5l.5,6M11.609,14.5l.783-6" fill="none" stroke="#000" stroke-linecap="round" stroke-linejoin="round"/>
  </g>
  <rect width="32" height="32" fill="none"/>
</svg>